{"glyphs":{"0":{"ha":800,"x_min":64,"x_max":964,"o":"m 682 1231 l 640 1114 l 623 1068 l 606 1021 q 534 969 572 1008 q 494 876 514 932 l 477 829 l 471 812 l 465 795 l 458 777 l 437 719 l 429 696 l 420 673 l 412 649 l 406 632 l 395 603 l 389 585 l 378 556 l 366 522 l 355 492 l 347 469 q 309 388 321 424 q 287 271 287 329 q 301 184 287 226 l 290 155 l 248 39 l 231 -8 q 64 190 64 5 q 133 496 64 307 q 165 579 147 536 l 224 742 l 253 789 l 267 829 l 292 894 l 304 911 l 314 940 l 347 998 l 404 1091 q 659 1231 511 1187 l 682 1231 m 776 1202 l 807 1225 q 964 1080 926 1202 q 956 1027 954 1056 q 932 928 944 993 q 907 829 920 894 l 901 814 q 892 771 895 799 l 884 748 l 878 730 l 869 707 l 861 684 l 852 661 l 844 637 l 836 614 l 827 591 l 785 475 l 768 428 l 757 416 l 741 370 q 713 312 726 350 l 699 288 l 693 271 l 684 248 l 673 231 l 664 207 q 577 96 625 168 q 338 -2 466 16 q 363 105 341 44 q 383 155 371 127 q 385 163 385 158 q 383 172 385 170 q 467 242 416 214 l 498 277 q 507 296 505 290 q 512 317 511 309 l 534 364 l 636 644 l 624 655 l 651 684 l 661 725 q 683 771 673 743 q 703 817 696 796 q 719 870 710 836 l 747 946 l 755 969 q 710 1021 734 987 l 776 1202 z "},"1":{"ha":445,"x_min":67,"x_max":711,"o":"m 587 1231 l 604 1231 l 704 1231 q 711 1219 702 1225 l 686 1149 l 679 1131 l 643 1031 l 634 1008 l 606 931 l 595 902 l 572 838 l 506 655 l 499 637 l 485 614 l 476 591 l 470 573 q 467 564 468 566 l 461 550 q 443 479 457 519 l 429 444 l 422 427 l 405 379 l 399 362 l 392 338 q 359 268 381 309 l 361 256 l 352 233 l 337 191 l 330 174 l 318 156 l 317 138 q 290 79 301 113 q 281 56 283 64 l 273 16 q 260 18 269 18 q 243 16 254 18 q 149 -9 195 -9 l 130 -8 q 85 -2 111 -8 l 67 -2 q 78 22 71 5 q 86 51 83 37 q 119 122 102 77 l 129 151 l 274 550 l 290 579 q 309 646 294 608 l 314 662 l 321 679 l 337 708 q 348 747 342 730 q 367 791 353 762 q 385 858 372 819 q 398 890 395 884 l 430 979 q 411 990 431 990 q 328 972 385 990 q 355 1086 332 1024 q 378 1143 367 1120 q 516 1231 446 1171 l 587 1231 z "},"2":{"ha":804,"x_min":-26,"x_max":962,"o":"m 707 1215 l 680 1140 l 674 1123 q 669 1111 673 1121 q 663 1077 662 1090 l 657 1060 l 651 1043 l 638 1025 q 519 917 556 997 q 476 877 494 900 l 412 905 l 396 911 l 387 917 l 372 922 l 357 928 l 349 940 l 332 940 l 317 945 l 318 963 q 681 1238 426 1181 l 707 1215 m 749 1128 q 795 1221 764 1172 l 812 1221 q 962 1010 962 1147 q 939 896 962 958 q 819 688 906 804 q 734 613 777 661 l 713 602 l 698 590 l 677 579 l 661 568 l 643 550 q 585 516 618 538 l 562 498 l 545 487 l 522 470 l 498 453 l 477 441 l 353 350 l 299 281 q 222 292 261 279 l 214 291 l 205 292 l 182 292 l 149 292 l 135 287 l 117 287 l 99 298 l 110 329 l 124 367 q 244 476 186 407 q 283 505 263 488 l 335 538 l 341 556 q 429 608 385 568 q 592 694 500 629 l 628 728 q 682 797 653 756 l 696 808 q 736 890 720 846 q 755 951 747 919 q 732 1041 732 991 q 749 1128 732 1082 m -7 104 q 62 229 16 165 q 143 221 96 221 q 203 224 178 221 l 218 218 l 229 229 q 292 221 255 221 q 341 224 320 221 q 372 220 359 220 q 410 224 385 220 l 431 218 l 454 218 q 501 224 469 216 q 568 217 526 217 q 597 218 590 217 l 623 229 q 659 184 661 222 l 611 69 l 605 52 l 597 29 l 590 12 q 574 0 582 12 q 538 2 559 2 q 446 -5 506 2 l 431 0 l 408 0 l 345 0 l 323 0 l 265 0 l 237 0 l 197 0 q 132 5 173 5 q 47 0 90 5 l 33 6 l 13 0 l -25 6 q -7 104 -26 51 z "},"3":{"ha":792,"x_min":37,"x_max":949,"o":"m 304 964 q 642 1238 408 1162 q 703 1215 676 1240 q 676 1160 687 1190 q 661 1098 667 1136 q 622 1023 636 1062 q 458 878 524 986 q 367 912 406 878 q 320 959 344 928 l 304 964 m 742 1150 q 760 1208 753 1179 l 793 1238 q 949 1022 949 1168 q 922 886 949 959 q 836 715 892 806 q 724 633 786 687 q 757 564 728 595 q 755 552 755 555 q 766 523 755 536 q 720 324 751 410 q 310 5 614 34 l 321 37 l 335 75 l 378 191 q 455 243 407 220 q 532 385 512 328 q 545 450 545 422 q 450 534 545 523 q 464 604 452 562 l 524 738 q 690 825 613 741 l 703 865 l 722 912 l 734 947 q 696 1017 738 993 q 703 1069 703 1040 q 742 1150 727 1109 m 235 377 l 269 372 q 265 329 265 353 q 314 191 265 254 l 309 180 q 280 118 292 149 q 263 52 269 86 q 216 -12 241 18 l 134 17 q 37 180 37 75 q 59 292 37 231 l 67 313 l 111 336 q 202 366 148 340 l 220 366 l 235 377 z "},"4":{"ha":838,"x_min":75,"x_max":1009,"o":"m 984 1225 l 1002 1225 q 1009 1213 1002 1219 l 984 1144 l 978 1127 l 942 1029 l 934 1006 l 906 930 l 869 827 l 862 809 l 854 786 l 845 763 l 803 647 l 797 630 l 789 607 l 782 589 l 772 561 l 766 543 l 757 520 l 751 503 l 736 463 q 757 465 748 465 l 758 465 q 799 429 799 465 q 787 381 799 410 q 746 301 762 345 q 740 283 740 285 q 667 271 711 283 l 641 202 l 635 185 l 600 87 l 591 64 l 583 41 l 574 18 l 556 0 l 452 0 l 429 0 l 412 0 l 389 0 l 379 6 q 403 104 382 47 l 414 133 l 551 509 l 564 532 l 581 578 l 602 635 l 653 774 q 661 795 649 766 q 677 855 671 825 l 688 873 l 690 890 l 704 930 q 718 962 712 946 q 734 1046 732 1002 q 747 1071 741 1055 q 753 1098 752 1084 l 766 1116 l 776 1144 l 790 1167 q 857 1225 832 1179 l 859 1225 q 871 1231 863 1225 l 984 1225 m 621 971 l 643 954 l 595 838 l 589 821 l 581 798 l 574 780 l 564 751 l 551 734 l 538 699 l 544 682 q 519 647 529 669 l 511 624 q 412 526 469 588 l 399 520 l 381 503 l 371 491 l 347 474 q 396 466 368 466 q 426 468 410 466 l 448 451 l 408 323 l 396 307 l 387 283 l 360 271 q 305 276 339 276 q 233 271 267 276 l 193 271 l 176 271 l 158 271 l 140 271 l 83 271 q 75 283 84 278 q 94 340 85 317 q 121 410 106 376 l 138 456 q 272 601 196 509 q 326 653 298 618 l 351 676 q 427 757 378 712 l 449 786 l 477 814 l 499 844 l 530 867 l 553 896 l 576 913 l 594 947 l 621 971 z "},"5":{"ha":814,"x_min":61,"x_max":1031,"o":"m 945 1232 q 977 1238 958 1232 l 1031 1226 q 1009 1144 1024 1185 q 950 1021 990 1091 q 906 1023 934 1023 q 814 1015 866 1023 l 798 1021 l 779 1015 l 757 1021 l 732 1015 l 710 1021 l 681 1021 l 655 1015 l 621 1015 l 598 1003 q 545 904 586 960 l 538 886 l 512 845 l 505 827 l 488 781 q 522 793 503 782 l 541 798 l 545 758 q 506 685 519 723 q 491 629 496 661 l 470 587 q 369 534 424 576 l 351 534 q 248 652 323 595 l 240 664 l 231 669 l 233 693 l 273 787 l 280 804 l 321 886 l 336 927 l 351 951 l 409 1080 l 429 1103 l 435 1124 q 461 1173 444 1147 l 459 1185 l 474 1226 q 503 1225 480 1225 q 600 1232 543 1225 l 615 1226 l 635 1232 l 652 1232 l 734 1232 l 916 1232 l 945 1232 m 609 758 l 640 798 q 808 585 808 745 q 773 415 808 511 q 753 365 763 389 q 362 7 612 7 q 336 7 342 7 q 380 113 348 41 l 395 154 l 393 165 q 481 230 428 207 q 522 312 492 262 l 557 406 l 557 407 q 555 418 559 412 q 567 446 562 431 q 583 511 577 473 l 590 529 l 543 593 l 591 711 l 609 758 m 280 371 l 275 371 l 286 371 l 280 371 l 292 371 l 286 371 l 292 371 l 298 341 q 285 277 285 308 q 326 189 285 227 q 305 119 314 144 l 299 103 q 202 -12 257 -12 q 163 1 184 -12 q 61 187 61 62 q 77 294 61 234 l 247 359 l 275 371 l 280 371 z "},"6":{"ha":800,"x_min":90,"x_max":975,"o":"m 699 1238 l 671 1145 l 654 1098 l 644 1086 l 637 1068 q 519 939 576 1021 q 507 900 516 925 q 460 793 487 846 l 454 775 l 448 758 q 471 741 454 741 q 519 758 489 741 q 501 656 521 710 q 485 616 495 638 l 459 564 l 449 552 q 301 391 345 511 q 281 317 290 358 q 278 287 278 298 q 327 199 278 232 q 307 134 319 168 q 273 53 298 112 l 267 35 l 260 18 l 248 0 q 90 198 90 22 q 153 484 90 310 q 176 545 157 497 l 183 564 q 207 651 190 602 q 271 787 231 716 l 298 863 l 348 951 l 355 968 l 383 1015 l 389 1033 l 450 1103 l 461 1116 l 471 1127 l 485 1133 l 494 1145 l 507 1162 q 656 1233 570 1207 q 672 1244 662 1234 l 699 1238 m 747 1122 q 817 1238 769 1179 q 975 1078 975 1181 q 964 1021 975 1050 q 932 957 952 989 q 797 910 874 947 q 799 939 799 924 q 736 1080 799 1023 q 747 1122 739 1100 m 614 745 l 639 751 q 783 553 783 692 q 754 412 783 491 q 727 347 741 374 q 354 0 642 93 q 339 24 351 11 l 399 188 q 552 349 511 237 q 559 370 558 366 q 572 401 568 387 q 587 477 587 440 q 552 575 587 532 q 557 589 557 589 q 564 624 564 606 q 563 640 564 635 l 599 705 l 614 745 z "},"7":{"ha":779,"x_min":100,"x_max":1027,"o":"m 422 1226 l 431 1238 q 511 1225 469 1225 q 606 1238 554 1225 q 653 1232 631 1232 q 711 1238 675 1232 l 729 1238 l 747 1238 l 764 1238 q 806 1235 780 1235 q 852 1238 832 1235 l 861 1232 l 937 1232 l 968 1238 l 998 1238 l 1027 1238 q 981 1078 1015 1172 l 966 1039 l 960 1022 q 892 946 928 991 q 836 940 871 947 l 802 940 q 782 943 796 943 q 755 940 770 943 q 724 934 743 941 l 693 946 q 700 974 695 962 q 728 1027 707 996 l 696 1034 q 652 1031 672 1031 q 603 1034 635 1031 l 553 1027 l 538 1034 l 521 1034 q 448 1027 492 1028 l 422 1034 q 378 1027 402 1034 l 357 1034 q 382 1120 362 1065 q 401 1168 387 1133 l 403 1191 l 413 1202 l 422 1226 m 650 860 q 724 870 682 860 q 792 864 750 870 l 793 835 q 744 765 764 806 q 671 660 701 724 q 625 584 644 627 l 608 566 l 593 543 l 587 526 q 489 368 538 460 q 456 309 473 346 l 433 263 l 418 239 l 412 222 l 357 117 l 331 47 l 325 29 l 285 0 q 234 -3 267 -3 q 174 0 199 -3 l 156 0 l 146 6 l 115 0 l 100 6 q 127 64 108 30 q 158 134 146 101 q 210 228 188 172 l 239 275 q 302 385 259 327 q 350 467 317 419 l 358 490 q 405 555 387 534 l 419 578 l 467 660 l 481 683 l 497 712 q 578 841 543 763 q 611 864 593 846 q 650 860 629 860 z "},"8":{"ha":830,"x_min":58,"x_max":971,"o":"m 648 1220 l 666 1238 q 708 1208 686 1231 q 694 1177 701 1196 q 684 1145 687 1158 q 671 1114 678 1132 q 659 1076 669 1106 l 625 1012 l 571 977 q 556 943 562 959 q 544 901 549 924 l 528 873 l 521 838 l 495 768 q 533 728 505 741 l 536 687 q 512 640 519 661 q 500 589 504 618 l 487 554 q 473 531 479 546 q 376 473 430 513 q 333 386 364 441 q 296 252 316 338 q 319 170 319 214 q 306 101 319 137 q 252 3 288 52 q 58 186 58 33 q 85 319 58 245 q 195 531 119 410 l 303 623 l 326 635 q 291 777 291 703 q 314 900 291 838 q 486 1156 357 1021 l 631 1220 l 648 1220 m 776 1203 q 817 1238 796 1217 q 971 1031 971 1176 q 944 897 971 970 q 856 722 917 821 q 810 675 830 707 q 734 612 764 654 q 783 443 783 528 q 763 336 783 391 q 505 33 709 186 q 451 9 481 30 q 387 -8 420 7 q 349 15 361 -11 l 329 9 q 377 109 358 55 q 401 189 389 141 q 530 322 483 237 q 555 374 546 350 q 568 444 568 410 q 543 531 568 491 q 564 623 559 573 l 576 641 l 577 659 l 595 693 l 616 734 q 740 891 703 790 q 760 971 754 930 q 725 1017 762 1006 q 726 1027 726 1021 q 721 1053 726 1041 q 745 1106 734 1076 q 763 1168 758 1140 l 776 1203 z "},"9":{"ha":759,"x_min":40,"x_max":911,"o":"m 674 1233 l 646 1158 l 640 1140 q 635 1126 638 1137 q 629 1094 629 1112 l 619 1082 l 611 1059 q 494 961 554 1022 l 468 891 l 462 874 l 426 776 q 473 665 422 707 q 454 595 469 639 q 402 486 436 547 q 231 667 231 515 q 251 787 231 720 q 273 863 261 832 q 435 1135 321 996 q 510 1181 464 1148 q 524 1204 517 1189 q 587 1233 555 1210 q 631 1244 608 1234 l 674 1233 m 736 1200 q 739 1221 739 1208 l 763 1238 q 909 1100 864 1209 q 907 1075 907 1088 q 911 1042 907 1059 q 905 996 904 1017 l 886 926 l 894 914 l 869 845 l 867 827 l 861 810 l 854 776 l 829 706 l 823 688 l 817 671 l 810 654 l 793 608 q 778 561 787 586 q 722 428 759 507 l 711 399 l 705 382 l 692 359 l 683 336 l 673 307 q 633 231 648 272 q 549 127 597 196 q 308 5 442 41 l 305 46 q 361 151 335 85 l 355 168 q 539 414 481 255 q 566 509 558 467 q 496 492 532 507 q 498 500 498 497 q 493 515 498 508 l 500 550 q 517 582 512 568 q 525 619 523 600 q 559 694 539 656 q 689 827 654 732 l 695 845 q 713 885 706 865 q 724 943 724 916 q 681 1030 724 994 q 684 1046 684 1037 q 675 1065 684 1057 q 702 1114 693 1088 q 713 1169 711 1141 q 736 1200 730 1184 m 56 254 q 193 324 119 275 l 221 324 q 278 179 226 244 l 298 168 q 283 112 293 143 l 279 99 q 203 17 250 17 q 165 28 186 17 q 40 208 58 73 l 56 254 z "}," ":{"ha":264,"x_min":0,"x_max":0,"o":""},"!":{"ha":169,"x_min":0,"x_max":0,"o":""},"\"":{"ha":161,"x_min":0,"x_max":0,"o":""},"#":{"ha":431,"x_min":0,"x_max":0,"o":""},"$":{"ha":431,"x_min":0,"x_max":0,"o":""},"%":{"ha":431,"x_min":0,"x_max":0,"o":""},"&":{"ha":330,"x_min":0,"x_max":0,"o":""},"'":{"ha":115,"x_min":0,"x_max":0,"o":""},"(":{"ha":228,"x_min":0,"x_max":0,"o":""},")":{"ha":260,"x_min":0,"x_max":0,"o":""},"*":{"ha":334,"x_min":0,"x_max":0,"o":""},"+":{"ha":431,"x_min":0,"x_max":0,"o":""},",":{"ha":161,"x_min":0,"x_max":0,"o":""},"-":{"ha":361,"x_min":174,"x_max":441,"o":"m 248 735 l 361 729 l 378 729 l 427 735 l 441 729 l 412 614 l 395 567 l 389 550 l 357 544 l 282 544 l 264 544 l 248 544 l 230 544 l 191 550 l 174 550 q 189 604 179 576 q 233 694 205 646 l 235 718 l 248 735 z "},".":{"ha":353,"x_min":5,"x_max":214,"o":"m 170 197 l 158 197 l 170 197 q 214 117 214 158 q 209 87 214 102 q 149 12 195 49 q 66 -11 98 -11 q 5 71 5 -11 q 6 99 5 89 q 158 197 62 176 l 170 197 z "},"/":{"ha":679,"x_min":-9,"x_max":1077,"o":"m -9 171 l 372 1222 l 715 1222 l -9 171 m 718 235 l 554 -1 l 212 -1 l 1053 1222 l 1077 1222 l 718 235 z "},":":{"ha":157,"x_min":0,"x_max":0,"o":""},";":{"ha":161,"x_min":0,"x_max":0,"o":""},"<":{"ha":674,"x_min":204,"x_max":991,"o":"m 223 609 l 648 1219 l 991 1219 l 552 609 l 547 -1 l 204 -1 l 223 609 z "},"=":{"ha":431,"x_min":0,"x_max":0,"o":""},">":{"ha":674,"x_min":1,"x_max":788,"o":"m 344 -1 l 1 -1 l 441 609 l 446 1219 l 788 1219 l 770 609 l 344 -1 z "},"?":{"ha":385,"x_min":0,"x_max":0,"o":""},"@":{"ha":393,"x_min":0,"x_max":0,"o":""},"A":{"ha":834,"x_min":-42,"x_max":852,"o":"m 640 1235 q 688 1258 663 1232 q 769 1232 719 1232 q 833 1240 795 1232 q 852 1211 836 1225 q 825 1089 833 1164 l 814 1060 l 812 1037 l 810 1035 q 810 1028 810 1033 q 811 1019 810 1022 l 800 973 l 798 949 l 787 921 q 794 909 792 919 l 793 907 q 792 901 792 903 q 794 892 792 897 q 789 879 792 889 q 776 810 778 850 q 762 739 762 777 q 765 700 762 722 q 743 595 745 650 l 734 554 q 722 456 726 511 q 705 362 710 415 l 699 345 l 699 344 q 701 333 697 338 l 696 287 l 687 263 l 696 240 l 668 147 l 670 136 l 659 43 l 644 2 l 542 7 l 524 7 q 475 2 503 9 l 460 7 l 431 7 q 431 27 431 14 q 458 194 431 93 q 401 201 436 201 q 367 199 382 201 q 359 211 368 205 l 369 252 q 448 391 422 311 l 501 409 q 512 502 503 448 l 511 513 l 511 515 q 509 525 513 522 q 516 542 511 528 q 530 601 526 569 q 546 659 533 625 q 545 673 545 663 q 552 723 545 694 l 554 746 l 559 775 q 579 863 559 808 l 578 874 l 577 903 l 586 944 l 590 973 q 595 1019 589 989 q 599 1026 597 1021 q 601 1038 601 1032 q 597 1055 601 1046 l 606 1095 l 606 1130 l 619 1165 l 621 1200 l 640 1235 m 434 845 l 470 833 q 448 741 452 786 l 443 728 q 432 665 432 699 l 423 642 l 425 630 l 416 606 l 414 583 l 383 467 l 382 465 q 381 458 381 461 q 382 450 381 455 l 376 432 l 373 409 q 325 321 362 368 l 308 275 l 295 258 l 289 240 l 264 188 l 254 176 l 245 153 q 196 48 219 115 l 186 37 l 172 14 q 72 -4 127 15 l -1 2 l -19 2 l -37 2 l -42 19 q 7 106 -28 60 q 83 235 29 157 l 125 316 l 143 351 l 170 391 l 216 473 l 227 502 l 248 525 q 300 624 261 564 l 368 746 l 397 793 l 406 816 l 434 845 z "},"B":{"ha":774,"x_min":-40,"x_max":949,"o":"m 741 1246 q 779 1258 758 1246 q 949 1067 949 1219 q 918 916 949 1002 q 812 705 884 825 q 770 669 785 699 q 671 623 729 661 l 734 569 l 743 564 q 746 519 746 544 q 719 372 746 450 q 659 252 697 315 q 281 -14 545 14 q 309 81 288 26 l 332 145 l 332 163 l 334 180 q 488 320 452 220 q 500 363 496 344 q 523 410 514 387 q 532 456 532 434 q 476 540 532 509 q 500 597 490 570 q 523 669 515 640 l 538 711 q 682 837 645 736 q 692 876 687 851 q 717 924 710 904 q 726 972 726 951 q 676 1058 725 1024 q 683 1074 679 1063 q 690 1111 690 1093 q 715 1165 707 1143 q 733 1246 728 1201 q 741 1246 735 1246 m 393 1217 q 498 1246 439 1240 q 556 1229 528 1243 l 604 1229 q 608 1211 603 1218 q 583 1149 597 1188 q 559 1076 568 1109 l 545 1052 l 538 1034 l 526 1017 l 523 993 l 510 958 l 502 935 l 499 911 l 458 799 l 446 781 q 439 746 439 764 q 425 715 434 739 q 414 675 416 693 l 403 663 l 390 628 q 368 551 376 593 l 343 498 l 325 463 q 313 416 322 441 l 307 381 q 262 283 283 340 q 242 222 251 251 l 244 210 l 229 186 l 212 140 l 205 104 l 195 57 l 167 16 q 54 -8 106 -8 q -35 10 7 -8 l -40 28 l 106 428 l 155 546 l 170 604 q 202 675 186 632 l 240 781 l 257 829 l 279 887 l 279 888 q 277 899 281 895 l 288 911 l 345 1069 q 356 1097 349 1076 q 387 1199 372 1141 l 393 1217 z "},"C":{"ha":786,"x_min":34,"x_max":945,"o":"m 779 1220 q 797 1238 790 1225 q 945 1042 945 1202 q 942 1000 945 1029 q 927 924 941 962 q 900 867 918 899 q 839 843 873 865 q 739 808 796 836 l 726 802 l 705 808 q 722 876 707 836 q 737 913 733 905 l 749 947 q 703 1011 740 986 l 779 1220 m 646 1220 q 661 1232 652 1221 l 700 1226 q 667 1151 691 1198 q 643 1069 660 1118 l 637 1052 l 628 1029 q 535 965 574 1016 q 522 931 529 954 q 495 838 505 887 l 482 820 l 474 797 l 473 779 q 459 752 463 765 q 452 722 454 739 q 426 667 437 700 q 419 646 420 652 l 376 530 l 360 484 l 348 466 l 345 443 l 334 426 q 321 384 331 413 q 300 333 314 363 l 275 234 q 297 168 297 210 q 290 118 297 144 q 267 69 275 92 q 252 14 261 54 l 243 2 l 186 -9 q 37 153 83 35 q 68 304 34 214 l 92 368 q 115 449 100 406 l 125 460 l 138 498 l 155 542 l 203 675 q 212 705 205 689 q 227 739 219 724 l 229 762 l 245 791 l 298 936 l 317 971 l 338 1011 q 408 1093 371 1043 l 418 1104 l 457 1133 l 469 1151 q 551 1185 505 1162 l 572 1192 l 589 1192 l 626 1215 l 646 1220 m 591 449 l 683 414 l 718 397 l 730 385 q 715 326 725 353 q 657 217 695 273 q 357 7 531 7 l 326 8 q 368 106 342 54 l 376 130 q 388 176 377 144 l 406 193 l 404 205 q 513 281 465 222 q 523 308 513 282 q 553 408 536 342 l 591 449 z "},"D":{"ha":762,"x_min":-39,"x_max":909,"o":"m 418 1238 l 425 1226 q 491 1234 459 1234 q 618 1197 561 1234 q 557 1063 584 1139 q 549 1038 555 1059 l 541 1016 l 532 975 q 521 954 524 962 q 515 928 519 949 q 481 856 494 889 q 458 771 469 822 l 444 747 l 425 695 q 406 652 411 668 q 385 572 390 608 q 374 551 377 559 q 368 526 372 547 l 349 503 l 344 473 l 336 438 l 326 409 q 296 340 312 383 q 271 257 280 297 l 233 152 q 214 109 222 132 q 199 59 208 94 l 192 41 l 180 24 q 37 -1 109 -1 q -37 6 3 -1 l -39 30 q -8 102 -24 59 q 18 187 8 147 l 24 205 q 52 261 42 233 q 56 272 54 265 q 60 286 58 278 l 68 310 q 77 338 82 351 q 110 409 90 372 l 121 444 l 138 485 l 180 602 q 186 618 185 616 q 200 659 199 658 l 227 730 l 382 1156 q 385 1197 387 1176 l 418 1238 m 680 1115 q 703 1202 695 1156 l 739 1238 q 909 1013 909 1200 q 851 743 909 905 q 793 602 825 669 q 754 485 775 543 q 275 -5 585 17 q 296 76 280 34 q 317 129 300 87 l 321 152 l 321 170 l 355 216 q 456 269 409 220 l 457 304 q 509 412 488 351 l 524 456 l 532 479 l 536 503 l 549 526 q 562 590 562 559 l 581 613 l 591 654 q 621 721 607 683 q 630 747 629 743 l 703 946 l 712 987 q 646 1016 695 1015 q 651 1027 649 1021 q 659 1068 659 1050 q 680 1115 675 1101 z "},"E":{"ha":775,"x_min":-41,"x_max":1019,"o":"m 578 1244 l 594 1238 l 612 1238 q 629 1239 615 1239 q 680 1233 652 1239 l 694 1238 l 732 1233 l 750 1233 q 789 1236 764 1236 q 831 1233 813 1236 l 855 1233 l 886 1238 q 950 1232 911 1232 q 983 1233 975 1232 l 1019 1233 q 1017 1219 1017 1226 q 1019 1204 1017 1211 q 998 1168 1004 1186 q 991 1128 991 1151 l 970 1087 l 968 1063 l 940 1034 q 871 1029 905 1029 q 788 1034 839 1029 q 757 1033 766 1033 l 718 1034 q 634 1028 680 1027 q 580 1040 612 1040 l 557 1040 q 519 956 539 1010 l 513 939 l 508 923 l 496 888 q 465 819 486 863 l 456 795 l 437 777 l 429 754 l 454 743 q 562 755 503 755 l 599 754 l 675 754 l 686 736 l 627 573 l 616 562 l 585 538 q 564 540 574 540 q 512 532 543 540 l 497 538 q 469 536 474 536 l 439 538 l 386 538 l 372 549 l 296 340 l 275 298 l 269 281 l 240 235 l 359 240 l 376 240 l 392 235 l 573 235 l 604 240 q 648 217 631 236 l 636 199 l 587 65 l 575 47 l 565 18 l 552 1 q 536 -11 546 -1 q 471 -4 513 -4 q 445 -5 452 -4 l 369 -5 l 353 1 l 102 1 l 43 12 l 20 12 l -9 1 l -41 7 q -13 100 -34 45 l 276 894 q 320 999 289 930 l 350 1081 q 363 1115 356 1093 q 391 1209 379 1158 q 439 1244 409 1219 l 578 1244 z "},"F":{"ha":763,"x_min":-45,"x_max":1007,"o":"m 434 1244 l 550 1244 l 566 1238 l 629 1238 q 673 1233 644 1238 l 691 1233 l 772 1233 l 815 1238 q 844 1236 827 1236 q 884 1238 862 1236 l 894 1233 l 911 1233 l 941 1233 l 977 1238 l 1007 1227 q 991 1167 1003 1199 q 913 1030 968 1101 q 890 1029 908 1029 q 822 1036 860 1029 l 808 1030 l 799 1036 l 779 1030 l 756 1030 l 739 1030 l 710 1030 q 648 1036 684 1028 l 617 1030 l 596 1036 q 541 1013 572 1031 l 497 908 l 491 890 l 479 844 l 463 815 l 463 798 l 447 769 q 560 753 495 753 q 634 758 595 753 l 659 745 q 644 695 654 723 q 621 641 634 669 l 622 629 l 616 612 l 607 589 l 569 549 l 465 549 l 424 549 l 401 549 l 378 549 l 362 554 l 337 484 l 331 467 l 295 368 l 286 345 l 278 322 l 270 299 l 261 276 l 238 212 l 200 108 l 191 84 l 164 9 l 131 -3 q 58 9 100 9 q -6 3 28 9 l -26 -3 l -45 9 q -34 47 -41 24 q 7 136 -23 77 l 12 165 l 24 183 l 90 363 l 100 392 l 400 1215 l 434 1244 z "},"G":{"ha":806,"x_min":66,"x_max":955,"o":"m 695 1232 l 686 1192 l 669 1145 l 669 1143 q 671 1133 667 1139 l 665 1116 l 659 1099 q 574 1029 634 1051 q 532 977 556 1002 q 511 901 529 945 l 473 797 l 465 774 q 449 699 455 745 q 417 629 433 673 l 407 600 l 365 484 l 358 467 l 350 444 l 345 414 l 335 386 l 322 351 l 312 322 l 304 287 l 292 252 q 336 200 318 233 q 317 155 328 184 q 294 50 298 104 l 287 32 q 249 -9 267 14 q 66 201 66 30 q 105 388 66 281 q 165 525 127 448 q 182 587 172 557 q 214 658 192 613 q 206 669 215 664 l 222 681 q 233 724 224 697 q 256 774 241 746 q 267 821 256 791 q 270 836 267 826 q 279 855 273 845 l 290 884 q 292 903 292 890 q 291 919 292 913 q 317 958 310 939 q 322 988 321 969 l 345 1017 l 355 1046 q 621 1238 464 1163 l 695 1232 m 807 1232 q 825 1238 814 1232 q 955 1069 955 1202 q 947 1000 955 1040 q 925 906 945 959 l 917 884 q 811 849 864 880 l 761 838 l 722 844 q 751 945 730 885 q 773 1000 762 974 q 734 1052 763 1027 q 751 1106 740 1078 q 779 1174 758 1129 l 795 1220 l 805 1232 l 807 1232 m 643 597 q 711 606 674 597 q 792 600 735 600 l 813 600 q 787 496 811 559 l 788 484 l 781 467 l 772 455 l 771 438 l 762 426 l 760 409 q 749 381 753 393 q 730 310 736 348 q 695 229 711 278 l 689 212 l 680 189 l 672 165 l 644 90 l 636 67 l 608 -9 q 578 -14 593 -14 q 523 43 532 -14 q 387 1 433 1 q 347 20 357 1 l 401 171 l 429 212 q 534 326 503 240 q 549 386 546 359 l 492 386 l 492 420 l 555 594 l 610 600 q 643 597 628 597 z "},"H":{"ha":819,"x_min":-26,"x_max":1077,"o":"m 402 1215 q 535 1244 462 1242 q 635 1233 572 1244 l 599 1117 l 593 1099 l 585 1076 l 578 1059 l 572 1041 q 559 1011 563 1023 q 541 943 549 985 q 524 907 531 928 q 513 867 515 886 l 502 850 q 499 840 502 849 q 493 826 496 831 q 479 770 491 802 q 469 745 475 758 l 449 705 q 481 699 465 698 l 481 690 q 486 664 481 677 l 459 588 l 452 571 l 435 524 q 371 490 413 487 l 329 374 l 322 356 l 314 333 l 307 315 l 297 286 l 290 269 q 281 245 282 250 q 267 188 269 214 q 239 123 249 149 q 214 43 232 102 l 201 25 l 195 7 l 174 -4 q 116 5 147 5 q 77 2 101 5 q 61 3 71 3 q 42 2 52 3 q 22 -4 34 2 l -26 7 q 5 128 -20 58 q 54 240 23 180 l 73 309 l 85 327 q 97 374 90 355 q 123 431 105 396 q 149 522 132 475 l 165 565 l 189 629 l 195 646 l 402 1215 m 811 1175 q 857 1233 825 1197 l 1077 1233 q 1033 1132 1056 1194 q 994 1006 1011 1070 l 977 977 l 967 931 l 954 913 l 942 884 q 918 798 930 851 l 897 757 l 895 733 l 855 640 l 857 629 l 842 606 l 844 594 l 838 576 l 819 542 l 806 507 l 800 472 l 781 437 q 753 345 765 395 l 747 327 l 722 257 l 715 240 l 680 141 l 671 118 l 644 43 l 637 25 l 631 7 l 561 7 l 544 7 l 445 7 l 422 7 l 404 7 q 427 87 410 41 q 438 118 435 112 l 532 391 q 553 441 542 411 q 572 501 564 471 q 532 519 545 500 q 548 553 542 537 q 559 594 551 564 l 589 675 q 652 705 609 699 q 665 734 661 722 q 682 821 679 774 q 694 842 688 828 q 699 867 698 853 l 739 960 l 745 977 l 744 989 l 765 1047 q 793 1108 781 1076 q 811 1175 805 1143 z "},"I":{"ha":372,"x_min":-24,"x_max":614,"o":"m 445 1222 q 486 1231 462 1222 l 495 1225 q 546 1231 522 1231 q 614 1219 581 1231 l 593 1127 q 570 1081 581 1110 l 572 1069 l 566 1052 l 559 1035 l 549 1006 l 513 908 l 507 890 l 486 833 l 475 804 l 446 723 l 408 619 l 399 596 l 385 556 l 378 538 l 372 522 l 366 504 l 338 429 l 332 412 l 326 394 l 300 325 l 294 308 l 258 210 l 250 186 l 208 71 l 202 54 l 185 8 q 64 -9 140 8 q -3 3 37 3 q -24 2 -20 3 l -18 37 l 102 366 l 102 382 l 119 412 l 125 446 l 142 475 l 149 510 q 155 529 150 515 q 182 585 166 557 l 180 596 l 243 769 l 252 792 l 288 890 q 313 970 300 935 q 353 1069 324 1002 l 357 1098 l 370 1116 l 376 1150 l 397 1208 l 426 1225 q 445 1222 436 1222 z "},"J":{"ha":765,"x_min":39,"x_max":994,"o":"m 784 1196 q 848 1231 810 1218 q 918 1220 877 1220 q 979 1225 942 1220 l 994 1219 q 956 1091 983 1168 q 918 996 934 1033 l 911 978 q 903 953 911 972 q 888 915 901 947 l 880 892 l 874 875 l 863 846 q 846 780 861 821 l 836 754 l 830 737 l 823 720 l 809 680 l 802 662 l 794 640 l 788 622 l 782 605 l 775 587 l 767 565 l 740 490 l 734 473 l 735 461 l 715 421 l 709 404 l 700 380 l 680 323 l 656 260 l 650 243 l 644 226 l 637 208 l 609 163 q 317 7 486 20 q 337 80 322 39 q 349 111 347 107 q 351 120 351 116 q 349 128 351 123 l 366 157 l 361 174 q 439 249 391 216 l 434 266 q 486 369 466 313 q 502 421 496 395 q 517 458 509 437 q 531 501 527 486 q 551 544 543 521 q 562 587 560 570 q 572 607 565 592 q 577 628 574 614 l 593 656 l 600 691 l 616 720 l 621 749 q 644 794 634 766 l 665 869 q 681 907 673 886 q 694 949 690 931 l 715 989 l 722 1024 l 751 1105 l 773 1150 q 784 1196 774 1168 m 347 484 l 326 427 l 303 363 l 302 347 l 289 323 l 288 306 l 274 283 l 268 266 l 264 243 l 262 220 l 294 197 l 269 128 q 259 87 265 104 q 214 7 243 46 l 215 -4 q 39 176 39 40 q 60 283 39 224 q 140 438 86 353 q 295 484 207 444 l 347 484 z "},"K":{"ha":785,"x_min":-21,"x_max":1029,"o":"m 443 1217 l 558 1217 l 575 1217 l 598 1217 l 616 1217 q 611 1208 612 1213 q 610 1198 610 1204 q 618 1177 610 1187 q 574 1093 591 1139 q 563 1056 568 1074 q 541 1010 552 1040 l 534 992 l 528 975 l 522 958 l 509 941 q 495 878 507 912 q 479 842 489 861 q 469 811 477 834 q 454 773 463 794 l 454 756 q 431 709 439 733 q 418 658 425 691 l 410 635 q 396 602 399 608 l 382 560 l 340 445 l 334 427 l 326 404 l 304 347 l 304 330 q 277 271 290 308 q 269 249 270 255 l 255 226 l 241 174 l 220 116 l 214 99 l 208 81 l 199 58 l 193 41 l 173 1 q 105 -11 146 1 l 88 -11 q 44 -5 65 -5 q -10 -11 24 -5 q -21 22 -21 3 q -11 64 -21 41 l 22 157 l 115 410 l 117 433 l 130 450 l 136 485 q 152 516 146 499 q 159 549 159 535 l 207 664 l 213 681 l 214 682 q 212 692 216 688 l 222 704 l 237 745 q 262 835 245 788 q 279 877 264 840 l 398 1206 l 443 1217 m 804 1194 l 823 1217 q 869 1215 839 1215 q 927 1217 902 1215 l 967 1217 l 990 1217 l 1008 1217 l 1029 1211 l 934 1044 l 921 1027 l 907 1004 l 901 987 l 885 975 l 873 958 q 833 895 857 927 l 819 871 q 744 745 777 821 l 728 733 q 703 600 702 665 l 696 583 l 688 560 l 687 543 l 687 526 q 686 516 686 523 q 686 508 686 511 l 680 491 q 664 399 668 450 l 659 370 q 648 307 648 340 q 640 237 637 280 l 633 220 q 629 191 629 205 l 612 99 l 607 70 l 608 41 l 582 1 q 553 -3 570 -3 q 519 1 536 -3 l 474 -11 l 438 1 l 416 -11 l 382 -11 q 393 62 393 24 q 393 81 393 75 l 398 95 l 403 108 q 406 115 404 112 q 408 121 407 118 l 414 139 l 408 157 l 418 185 q 420 195 420 191 q 416 208 420 201 l 428 226 q 437 278 437 253 q 435 307 437 294 l 449 347 l 448 376 l 463 416 l 453 439 l 468 462 q 465 482 465 474 q 471 519 465 499 l 464 531 l 518 681 q 545 739 528 708 l 554 762 l 554 779 l 569 819 l 577 842 q 696 1027 654 919 q 763 1131 736 1066 l 791 1177 l 804 1194 z "},"L":{"ha":755,"x_min":-35,"x_max":635,"o":"m 499 1217 q 511 1223 505 1217 q 542 1224 525 1224 q 618 1217 580 1224 q 584 1076 612 1156 q 547 987 570 1038 l 544 964 q 531 938 536 950 q 523 907 528 929 l 511 890 q 503 871 509 887 q 487 809 492 838 l 475 774 l 456 740 l 442 700 l 439 660 q 407 591 423 635 q 397 562 399 570 l 353 441 l 347 407 l 326 367 l 271 217 q 340 199 299 199 q 394 205 366 199 q 439 197 411 197 q 473 200 450 197 q 537 191 502 191 q 616 200 572 191 l 635 189 q 605 86 627 146 q 583 28 598 66 l 576 10 q 518 -7 549 -1 q 435 0 487 0 q 388 -1 411 0 l 43 -1 l 22 5 l -1 5 l -22 10 l -35 22 l 70 309 q 80 336 75 319 l 86 353 q 105 407 97 380 q 125 452 113 422 q 141 505 135 479 l 161 545 l 388 1183 l 410 1211 l 452 1217 l 498 1217 l 499 1217 l 499 1217 z "},"M":{"ha":920,"x_min":-52,"x_max":1159,"o":"m 971 1216 l 1003 1238 q 1092 1225 1037 1225 q 1150 1229 1112 1225 l 1159 1223 q 1139 1156 1154 1197 l 1120 1107 l 1113 1090 l 1106 1072 l 1079 1002 l 1073 985 l 1074 973 q 1068 945 1067 958 q 1051 911 1056 926 q 1043 880 1048 905 q 1038 869 1039 873 q 1034 857 1037 868 q 1026 841 1029 849 l 1023 829 l 1008 806 l 1000 770 l 991 747 l 973 701 l 962 672 q 945 614 956 657 l 920 550 l 922 538 l 907 515 q 901 490 907 508 q 882 452 894 473 q 869 405 881 433 l 863 370 l 837 336 l 840 312 q 806 243 829 283 l 794 196 l 788 179 q 783 170 785 175 q 781 161 781 165 l 774 144 l 768 127 q 762 117 764 123 q 761 109 761 113 l 751 86 l 727 22 q 619 9 677 9 q 544 15 589 9 q 589 190 548 80 l 600 201 q 613 253 604 227 q 646 323 623 281 q 657 372 648 348 q 675 410 663 389 q 696 479 679 435 l 801 764 q 811 789 808 781 q 827 845 819 808 l 935 1123 q 964 1198 946 1157 l 971 1216 m 401 1213 l 431 1230 q 444 1230 433 1230 q 492 1222 468 1230 q 539 1227 509 1227 l 557 1226 l 597 1225 q 588 1140 588 1184 q 590 1103 588 1122 l 581 1080 l 588 1067 l 573 968 l 575 945 q 573 930 573 939 q 575 916 573 923 l 568 881 q 562 832 562 858 q 566 787 562 809 q 557 740 557 766 q 558 723 557 728 l 551 688 l 575 676 l 637 762 l 667 808 l 686 843 l 702 854 l 718 877 q 759 865 740 876 q 753 846 758 859 q 719 778 739 810 l 720 766 l 708 749 l 707 731 l 698 708 l 691 690 l 659 609 q 649 587 653 600 q 640 545 642 569 l 628 528 l 625 505 q 570 378 597 458 l 559 337 l 496 233 l 481 227 l 475 210 l 468 193 l 448 170 l 439 146 l 416 118 l 401 95 q 392 77 397 90 q 387 60 391 74 l 361 20 q 298 9 334 12 q 313 92 298 46 l 317 132 l 312 150 l 321 173 l 314 185 l 315 188 q 316 194 316 190 q 315 202 316 199 l 323 237 l 329 267 l 324 284 l 328 307 l 325 331 l 338 425 l 328 442 q 338 518 338 479 q 334 565 338 542 q 339 614 339 584 q 338 635 339 628 l 345 652 l 337 676 q 346 744 346 709 q 345 770 346 752 l 345 799 q 346 813 346 808 q 344 828 346 821 q 351 886 351 853 q 347 939 351 912 l 353 956 l 347 968 l 357 1009 l 355 1050 l 349 1080 l 401 1213 m 208 673 l 202 673 l 208 673 l 239 649 q 238 613 238 638 q 241 549 238 578 l 235 532 q 237 506 237 520 q 227 439 237 475 l 235 427 q 224 372 224 401 q 224 357 224 362 l 219 328 l 221 304 l 216 275 q 219 241 219 262 q 218 205 219 232 l 173 89 l 168 48 l 161 31 l 146 7 l 134 -9 q 75 -14 118 -9 l 11 -12 l -7 -18 l -23 -12 l -37 -17 l -52 -11 q -50 4 -50 -4 q -52 18 -50 12 q -37 54 -45 30 q -22 111 -28 78 q -5 150 -9 136 q 3 175 -4 152 l 28 239 l 41 256 l 58 302 l 73 355 l 79 384 l 111 465 q 118 489 111 465 q 159 575 136 536 l 174 616 l 180 645 l 202 673 l 208 673 z "},"N":{"ha":788,"x_min":-42,"x_max":981,"o":"m 190 14 l 68 -3 q 42 -5 54 -5 q -42 26 -10 -5 l -17 96 l -9 113 l 26 211 l 35 234 l 41 251 l 47 268 q 58 315 55 289 q 75 349 70 332 q 85 389 83 370 q 104 430 98 411 q 115 470 110 444 q 122 486 117 473 q 135 539 131 509 q 144 557 140 547 q 148 574 147 566 l 162 597 q 177 655 164 619 q 186 677 182 672 q 195 707 189 691 q 232 787 205 738 l 239 804 l 259 798 q 271 752 258 776 q 266 695 266 722 q 283 596 266 644 l 280 573 l 288 533 l 292 464 l 294 452 l 304 435 l 296 412 l 309 383 l 303 354 l 307 331 q 304 318 304 325 q 307 302 304 310 q 253 193 273 251 q 223 72 233 140 l 212 60 l 190 14 m 568 24 q 552 13 563 23 l 532 12 q 460 42 492 12 q 463 81 463 66 q 450 175 463 124 l 453 198 l 446 210 q 447 231 447 223 q 437 296 447 261 l 438 313 l 433 330 q 434 350 434 344 q 422 411 434 380 l 429 429 l 425 452 l 415 469 q 417 490 417 479 q 402 544 417 518 q 404 564 404 553 q 403 578 404 568 l 404 580 q 401 590 406 586 l 402 604 q 387 677 402 641 l 393 694 l 387 723 l 380 751 l 374 781 q 375 802 375 787 q 359 867 375 834 l 366 884 q 353 942 358 904 l 345 954 l 343 965 q 345 988 345 977 q 332 1046 345 1018 l 342 1103 q 356 1134 348 1114 q 366 1167 363 1156 l 380 1207 q 431 1215 407 1215 q 484 1207 453 1215 l 529 1218 l 552 1218 l 567 1213 l 566 1200 q 582 1097 566 1158 l 581 1096 q 584 1086 579 1090 q 582 1075 582 1081 l 583 1068 q 582 1056 582 1065 q 585 1010 582 1047 l 590 993 q 589 984 589 990 q 589 976 589 979 l 590 947 q 602 884 589 916 l 595 866 l 601 849 q 605 814 600 832 l 604 780 l 604 751 l 609 716 l 614 682 l 616 659 l 621 624 l 620 589 l 625 555 q 640 456 625 512 q 639 437 639 450 q 650 387 639 411 q 647 366 647 379 q 650 341 647 353 l 661 307 q 657 267 656 288 l 604 122 l 605 111 l 593 94 l 568 24 m 760 549 l 721 566 l 741 618 l 736 669 l 734 728 l 727 739 l 728 756 l 720 768 q 721 780 721 771 q 718 825 721 789 l 713 843 q 708 860 713 852 l 711 883 l 716 912 l 705 929 l 707 952 l 696 970 q 705 1010 704 990 l 723 1056 q 731 1083 725 1064 q 764 1154 745 1120 q 773 1181 770 1175 l 785 1212 l 822 1217 q 859 1216 837 1216 q 956 1223 905 1216 l 974 1223 q 981 1211 972 1217 q 958 1120 976 1169 q 923 1038 945 1082 l 923 1021 l 886 923 q 878 897 882 907 q 865 865 873 882 q 854 819 854 834 l 848 802 l 829 750 l 821 727 l 799 652 l 777 577 l 760 549 z "},"O":{"ha":781,"x_min":49,"x_max":923,"o":"m 397 1103 q 625 1224 492 1182 q 642 1194 642 1221 q 623 1113 642 1165 q 593 1040 610 1079 q 528 987 570 1006 l 514 964 l 495 947 l 454 832 q 452 823 452 827 q 453 815 452 821 l 439 792 l 433 774 q 422 739 431 764 q 403 694 413 713 l 382 618 l 347 521 l 336 492 l 332 463 l 311 423 q 298 369 310 403 l 290 348 q 261 256 277 317 q 302 210 265 225 l 301 175 q 290 149 292 154 l 280 117 q 260 73 268 94 q 244 19 256 60 l 233 2 q 205 1 220 1 q 63 106 93 1 l 49 100 q 57 216 58 144 l 63 250 q 73 308 75 279 l 96 388 l 103 406 q 124 498 104 441 q 130 511 126 501 q 136 544 136 526 l 147 562 q 171 640 157 600 q 210 734 185 677 l 260 872 l 273 890 l 286 907 l 300 947 q 353 1046 328 992 l 365 1063 l 397 1103 m 711 1113 q 730 1178 722 1142 l 760 1213 q 913 1097 857 1192 q 912 1084 912 1088 q 923 1046 912 1065 l 902 954 l 903 941 l 902 924 q 896 909 901 924 q 878 826 882 873 l 876 803 l 867 780 q 856 755 860 766 q 844 700 848 732 l 835 677 l 827 654 l 824 631 l 810 608 q 793 554 804 583 q 743 440 774 503 l 737 423 l 729 400 l 722 382 l 710 348 l 704 331 q 648 227 669 284 l 625 193 l 591 134 q 344 -9 487 31 q 341 22 341 11 q 364 136 341 73 q 388 193 372 155 l 397 216 q 477 279 438 237 l 494 321 q 536 457 514 376 l 553 486 l 547 503 l 570 532 l 712 924 q 677 1017 714 979 q 686 1057 684 1034 q 711 1113 702 1086 z "},"P":{"ha":744,"x_min":-46,"x_max":917,"o":"m 709 1206 q 711 1215 711 1212 l 743 1238 q 917 1055 917 1208 q 884 899 917 989 l 867 858 q 856 821 863 842 q 472 543 756 549 q 499 633 481 583 l 513 671 l 535 730 q 650 823 611 753 q 683 928 667 863 l 706 992 q 648 1039 697 1036 q 653 1057 648 1040 q 680 1115 663 1084 l 705 1197 q 709 1206 707 1199 m 507 1232 l 530 1232 l 548 1232 l 571 1232 l 585 1220 q 564 1137 581 1181 q 521 1045 551 1097 q 484 911 514 991 l 473 899 l 473 882 l 437 782 l 427 753 l 418 730 l 380 625 l 371 601 l 365 583 l 366 572 l 351 531 l 338 496 l 330 455 l 292 350 l 283 326 l 240 210 l 234 192 l 217 145 l 200 99 l 183 52 l 162 11 q 20 -3 102 -3 q -46 -1 -12 -3 q 3 155 -33 55 l 14 183 l 28 221 l 111 449 l 120 473 l 126 507 l 156 572 q 192 688 166 619 l 333 1074 q 345 1118 339 1103 q 402 1232 363 1167 l 507 1232 z "},"Q":{"ha":840,"x_min":53,"x_max":989,"o":"m 752 1172 q 781 1238 759 1196 q 845 1214 812 1233 l 861 1208 l 879 1208 l 888 1202 l 922 1178 l 924 1166 l 947 1166 q 989 1082 956 1128 q 985 1022 984 1059 q 966 920 983 987 q 945 848 962 894 l 945 830 l 924 788 q 912 740 922 767 l 895 692 q 857 572 885 646 q 833 524 846 553 l 833 506 q 817 494 825 503 q 825 482 823 492 q 786 408 800 447 q 770 351 779 387 q 727 248 749 312 l 705 218 l 698 200 l 692 182 q 617 111 664 149 l 605 92 q 620 3 603 51 l 607 -33 q 539 -87 572 -52 q 441 -159 490 -107 l 417 -159 q 401 -90 401 -130 q 407 -39 401 -64 q 350 -16 387 -22 q 345 20 352 3 q 386 115 366 60 l 399 153 l 414 195 q 515 338 483 245 q 572 515 526 387 l 587 554 l 587 572 l 600 590 l 606 608 l 609 632 l 620 662 l 635 686 l 640 716 l 655 758 l 672 788 q 688 826 681 807 q 714 920 703 867 l 725 950 l 688 998 l 752 1172 m 372 1052 q 640 1225 483 1159 l 691 1219 q 650 1138 665 1177 q 628 1046 635 1097 l 616 1028 q 539 950 590 989 l 513 878 l 507 860 l 469 758 l 460 734 l 452 710 l 443 686 l 434 662 l 428 644 l 419 620 l 402 590 q 391 551 398 569 q 370 500 385 533 l 341 422 l 332 398 l 330 374 l 315 351 q 292 269 310 317 q 279 237 282 243 q 314 182 287 205 q 312 171 312 176 q 313 164 312 166 q 286 112 296 139 q 273 39 273 77 l 239 -22 l 164 -16 q 53 223 53 74 q 94 429 53 315 q 149 554 117 493 l 269 884 l 283 908 l 357 1028 l 372 1052 z "},"R":{"ha":789,"x_min":-45,"x_max":956,"o":"m 469 1230 q 547 1238 506 1230 q 599 1220 567 1234 q 589 1196 591 1203 q 571 1126 578 1170 l 560 1115 l 552 1091 l 545 1074 l 537 1050 l 528 1027 l 522 1009 l 522 991 l 505 962 l 490 922 l 488 898 l 479 875 l 464 833 q 451 790 462 821 q 430 740 441 761 l 413 693 l 413 675 q 361 555 385 621 l 340 494 l 326 453 q 315 418 321 437 q 273 324 299 377 l 264 283 l 223 154 l 180 37 l 148 -4 l 42 -4 l 19 -4 l 1 -4 l -22 -4 l -45 -4 l 55 271 l 55 289 l 66 318 q 82 356 71 328 q 96 400 92 384 l 112 429 q 125 471 117 450 q 146 523 128 482 l 146 541 l 159 558 l 170 587 q 209 712 180 631 l 217 734 l 232 775 q 245 809 238 787 q 273 904 262 853 l 297 968 l 311 991 l 333 1068 q 343 1095 337 1076 q 374 1197 360 1139 l 380 1214 q 439 1232 408 1216 q 469 1230 452 1230 m 683 1162 q 779 1232 705 1224 q 956 1079 956 1217 q 932 962 956 1029 q 910 860 927 907 q 705 629 859 720 l 697 605 q 751 558 727 594 l 760 552 l 762 511 q 757 465 756 483 l 714 347 l 697 300 l 691 283 l 680 254 l 671 230 l 659 195 l 616 78 l 610 60 l 602 37 l 595 20 l 583 2 q 534 -1 563 -1 q 477 2 507 -1 l 452 -4 l 435 -4 l 425 2 l 406 -4 l 376 -4 q 401 86 383 38 q 416 123 405 98 l 423 142 l 507 371 q 515 392 514 387 q 528 447 524 414 l 534 465 q 471 500 520 500 l 473 535 q 478 549 477 546 q 485 564 484 559 q 509 652 498 601 l 515 669 q 613 728 549 712 q 694 876 671 814 q 709 954 709 918 q 654 1050 709 1019 q 676 1093 670 1075 q 685 1139 685 1115 q 683 1162 685 1151 z "},"S":{"ha":846,"x_min":62,"x_max":989,"o":"m 614 1232 q 632 1238 622 1232 q 697 1220 665 1237 q 688 1196 695 1217 q 668 1125 675 1162 q 639 1059 648 1092 l 628 1048 l 628 1030 q 598 983 611 1008 q 546 935 571 962 q 514 864 528 907 q 661 733 558 781 q 724 674 680 699 l 739 650 q 786 585 763 630 l 795 579 l 810 472 l 814 448 q 808 418 808 432 q 812 395 808 408 q 798 351 806 371 q 520 33 730 166 q 368 -9 449 -3 q 392 80 374 29 q 416 140 399 101 l 443 229 q 583 372 539 269 q 545 478 583 426 l 508 490 q 466 537 496 511 l 451 543 l 449 555 l 433 561 l 432 573 q 292 793 292 644 q 325 958 292 867 q 353 1024 334 983 q 408 1078 380 1046 q 467 1143 438 1107 q 507 1173 486 1152 q 612 1232 557 1187 l 614 1232 m 760 1179 q 766 1214 767 1198 l 778 1232 q 989 994 988 1214 q 979 946 987 969 q 952 894 969 920 q 846 882 911 893 l 829 882 l 827 882 q 808 876 819 882 l 785 876 l 759 869 l 741 869 l 728 882 q 745 947 732 913 q 715 994 740 975 l 705 1030 l 754 1166 q 760 1179 758 1173 m 252 389 l 300 389 q 289 311 289 348 q 341 193 289 234 q 315 98 334 153 q 263 -20 294 43 l 226 -9 l 208 -9 q 62 243 62 60 q 65 300 62 267 l 68 309 q 245 389 97 389 l 252 389 z "},"T":{"ha":800,"x_min":200,"x_max":1034,"o":"m 1008 1231 l 1034 1225 q 1009 1101 1033 1166 q 968 1012 994 1061 l 853 1012 l 836 1012 l 819 1012 l 809 1018 l 784 1012 l 768 1018 l 743 949 l 737 932 l 701 833 l 693 810 l 666 736 l 656 707 l 632 644 l 624 621 l 622 597 l 603 563 l 601 540 l 588 505 l 574 483 q 547 391 566 442 l 534 356 l 522 321 l 507 281 l 488 229 q 479 209 485 223 q 460 137 467 175 l 451 114 l 445 97 l 430 56 l 416 16 q 325 -1 373 -1 q 268 5 296 -1 q 200 -7 237 -7 l 202 62 q 230 115 220 87 q 239 149 237 134 l 275 246 l 277 249 q 273 258 278 254 q 295 307 290 292 q 322 408 309 343 q 339 442 332 422 q 349 483 347 464 l 357 505 q 376 548 371 532 q 391 597 382 565 l 496 886 l 517 926 l 538 1000 l 530 1012 q 463 1000 504 1012 q 412 1007 444 1007 q 391 1006 396 1007 l 373 1006 l 356 1006 l 340 1012 q 357 1091 340 1046 q 365 1110 362 1105 l 388 1173 l 393 1202 l 403 1214 q 487 1220 440 1220 q 519 1219 513 1220 l 537 1219 l 600 1219 l 704 1219 l 721 1219 l 749 1218 q 833 1225 781 1218 l 850 1225 l 890 1225 l 908 1225 l 937 1225 l 983 1225 l 1008 1231 z "},"U":{"ha":775,"x_min":50,"x_max":1006,"o":"m 404 1231 l 475 1231 l 492 1231 l 592 1231 l 616 1231 q 593 1147 610 1192 q 570 1090 585 1122 l 569 1088 q 572 1078 567 1084 q 549 1031 558 1059 l 542 1014 q 531 979 541 1009 l 514 937 l 507 902 q 471 820 488 869 l 463 779 l 450 743 l 437 708 l 409 632 l 403 614 l 396 597 l 368 520 l 362 503 l 355 489 q 351 456 351 473 l 336 432 q 324 380 334 410 q 296 321 311 346 l 296 303 l 280 262 l 274 244 l 271 221 q 290 170 290 202 q 278 109 290 144 q 258 62 271 97 q 239 3 244 23 q 218 -8 227 1 q 50 180 75 18 q 56 214 56 195 q 54 239 56 226 l 62 259 q 92 356 76 297 l 98 374 q 102 382 100 376 q 104 391 104 389 l 166 562 l 178 579 l 184 597 q 203 667 191 634 q 220 708 210 688 q 259 833 231 754 l 267 855 l 370 1137 l 374 1151 l 381 1171 q 389 1190 382 1175 l 397 1213 l 404 1231 m 932 1231 l 956 1231 l 974 1231 l 997 1231 l 1006 1225 q 978 1109 1002 1177 q 956 1055 970 1086 l 947 1035 q 935 979 939 1010 l 922 961 l 924 949 l 918 931 l 905 913 l 896 873 l 888 849 l 849 743 l 841 720 l 834 703 l 825 679 l 787 573 l 781 555 l 774 538 l 743 438 l 734 414 l 728 397 l 715 362 l 705 332 l 696 292 q 654 209 677 260 q 622 168 636 194 q 347 -8 510 49 q 335 9 345 3 l 350 53 l 370 104 l 376 121 l 376 122 q 374 133 378 128 l 393 186 q 482 286 447 223 l 497 292 l 501 321 q 530 450 519 371 l 666 838 l 673 873 l 696 937 q 736 1031 716 978 l 743 1046 q 752 1090 749 1063 l 780 1166 q 827 1231 791 1194 l 932 1231 z "},"V":{"ha":781,"x_min":224,"x_max":1031,"o":"m 857 1231 l 961 1231 l 984 1231 l 1002 1231 l 1025 1231 q 1031 1219 1023 1225 q 939 1045 1006 1149 q 895 970 927 1010 l 886 946 l 871 923 l 839 865 l 827 848 l 819 825 l 795 778 l 776 755 l 757 720 l 741 691 q 694 610 728 658 l 646 511 l 614 488 q 612 513 612 504 q 631 598 612 551 l 624 610 l 637 708 l 637 726 q 652 830 650 768 q 654 844 654 838 q 651 859 654 852 l 648 882 l 679 935 l 688 946 l 709 987 l 724 1010 l 744 1051 l 763 1086 l 774 1103 q 821 1184 788 1133 l 836 1208 l 857 1231 m 503 1213 q 515 1219 509 1213 l 604 1208 q 591 1074 593 1160 l 589 1057 l 583 1039 l 577 1022 l 582 1004 q 578 994 580 1002 q 570 941 568 970 l 562 900 q 560 890 560 897 q 561 882 560 885 l 560 865 q 558 851 558 858 q 562 836 558 844 l 555 819 l 558 795 q 544 708 544 756 l 538 691 q 532 641 532 667 q 535 604 532 625 l 527 581 l 514 499 l 513 481 l 509 435 q 500 366 498 406 q 495 319 494 340 l 492 278 l 489 238 q 432 145 470 186 q 360 12 411 91 l 350 -1 q 290 -6 316 -6 q 228 -1 264 -6 q 229 9 229 3 q 224 35 229 23 q 231 52 225 37 q 252 168 252 111 q 248 214 252 189 q 254 227 252 221 q 262 284 264 257 q 269 319 269 304 l 281 383 l 277 406 q 282 435 282 418 l 296 488 l 297 557 q 298 566 298 560 q 298 574 298 572 l 311 610 l 305 627 l 318 662 q 329 772 318 706 q 336 833 336 802 q 336 853 336 846 q 351 911 345 878 l 343 923 l 349 970 q 365 1063 363 1007 l 378 1161 l 393 1202 q 474 1215 431 1215 l 501 1213 l 503 1213 z "},"W":{"ha":1049,"x_min":212,"x_max":1318,"o":"m 861 1226 q 877 1238 867 1227 q 928 1220 904 1236 l 918 1145 l 912 1127 l 909 1069 q 899 1011 911 1046 q 892 947 901 984 l 890 924 q 896 890 888 907 l 889 872 l 888 870 q 890 861 886 864 q 878 779 880 828 q 876 766 876 773 q 880 750 876 759 q 871 681 871 724 l 866 634 l 865 626 q 871 600 865 614 l 865 553 q 864 541 864 545 q 867 524 864 532 l 858 484 l 856 385 q 793 257 838 333 l 772 216 l 766 199 l 754 182 l 747 164 l 733 141 l 726 123 l 715 106 l 700 83 l 686 60 l 673 25 l 653 2 l 584 2 l 597 135 l 604 187 l 604 199 l 614 292 q 627 391 627 334 l 631 420 l 629 443 q 633 472 633 458 l 640 507 l 639 536 l 646 570 l 649 611 q 652 631 652 620 q 650 646 652 641 q 667 740 667 690 q 665 768 667 749 q 678 866 680 812 q 682 907 682 885 l 687 954 q 764 1069 711 1006 l 774 1099 l 792 1116 l 821 1162 l 835 1185 l 853 1203 l 861 1226 m 1120 1238 l 1318 1238 q 1306 1199 1314 1222 q 1221 1035 1279 1126 l 1215 1017 l 1186 970 q 1128 861 1169 926 q 1077 768 1116 819 l 1079 756 q 1038 692 1062 724 l 1019 640 l 980 629 l 970 663 q 978 683 972 667 q 991 755 991 719 q 985 802 991 777 q 993 854 993 826 l 994 872 l 998 901 l 995 924 l 1003 947 l 992 965 q 987 983 994 977 q 1038 1075 1004 1034 q 1078 1151 1048 1103 q 1092 1183 1086 1164 q 1101 1215 1099 1204 l 1120 1238 m 409 1226 l 623 1226 q 625 1196 625 1217 q 601 1052 625 1135 l 606 1035 l 600 1017 q 598 1008 598 1015 q 599 1000 598 1002 l 593 983 l 596 959 q 580 884 585 928 l 574 866 l 570 843 q 566 805 566 826 q 567 785 566 792 l 559 745 l 552 727 q 551 718 551 724 q 551 709 551 712 l 551 692 l 543 669 l 537 576 q 526 512 528 546 q 520 448 519 484 l 503 402 q 448 298 475 362 l 438 286 q 414 239 425 269 l 401 216 l 387 193 l 347 118 l 332 89 l 315 60 l 298 31 l 288 2 q 273 3 285 3 q 222 -4 248 3 q 214 54 212 16 q 219 64 216 56 q 224 91 224 80 q 222 106 224 98 q 231 153 231 131 q 231 164 231 160 l 237 182 q 250 280 249 228 l 253 303 q 264 368 264 338 l 275 396 l 271 420 q 284 500 285 457 l 294 530 l 292 553 q 296 582 296 567 q 309 652 309 623 q 309 663 309 660 l 323 722 l 327 762 l 333 779 l 340 831 l 343 854 l 345 890 l 353 930 l 370 1040 l 376 1058 l 391 1192 l 409 1226 z "},"X":{"ha":847,"x_min":-35,"x_max":1095,"o":"m 1061 1228 l 1083 1239 q 1095 1210 1095 1227 q 1088 1180 1095 1199 q 947 1004 1026 1115 l 937 993 l 924 976 l 909 953 l 835 857 l 814 833 l 799 811 l 784 788 l 769 765 l 741 737 l 725 744 q 730 793 730 766 q 721 861 730 829 q 724 888 724 871 q 723 908 724 901 q 730 941 730 924 q 728 961 730 951 l 734 1019 l 730 1037 l 736 1055 q 829 1168 788 1099 q 885 1236 854 1194 l 1061 1228 m 558 1227 q 620 1236 585 1225 q 666 1193 648 1227 q 656 1127 656 1162 q 665 1063 656 1094 q 655 999 655 1034 q 660 952 655 981 q 667 940 657 943 q 653 870 653 907 q 655 841 653 857 l 646 806 q 645 777 645 788 q 648 724 645 762 q 642 665 642 696 l 640 648 l 641 636 l 640 634 q 639 625 639 629 q 640 618 639 621 l 639 589 l 639 559 q 634 522 634 543 q 640 477 634 498 l 633 460 l 638 431 q 634 399 634 414 q 645 348 634 372 l 635 325 q 637 296 637 307 q 635 254 637 284 l 642 225 q 635 189 635 207 q 645 149 635 169 q 635 84 635 118 q 640 37 635 60 l 639 20 l 623 -3 q 582 0 600 0 q 561 -1 566 0 l 522 1 l 498 2 l 458 4 l 442 5 l 413 6 q 406 74 406 38 q 409 123 406 100 l 405 142 l 412 159 q 406 171 413 164 q 414 228 414 198 q 408 276 414 254 l 414 305 l 416 382 l 413 417 l 412 441 l 415 464 l 416 493 l 416 523 l 422 652 l 416 663 l 419 687 l 425 728 q 425 749 425 735 q 422 792 425 770 l 429 839 l 426 874 l 431 916 l 431 956 q 432 987 432 975 q 429 1050 432 1012 l 430 1068 q 431 1082 431 1073 q 426 1115 431 1099 q 429 1142 429 1130 q 420 1186 429 1164 l 435 1221 q 506 1233 470 1233 q 558 1227 532 1233 m 319 498 l 340 491 q 332 374 332 438 l 319 315 q 328 268 328 293 q 318 214 328 242 q 247 107 300 163 q 178 11 221 56 q 146 9 162 9 q 94 14 119 9 l -8 7 l -35 26 l -16 72 q 97 208 39 125 l 108 219 l 128 241 l 148 276 l 166 293 l 179 310 l 197 338 l 215 355 q 273 441 237 396 q 298 475 280 458 l 319 498 z "},"Y":{"ha":818,"x_min":180,"x_max":1071,"o":"m 391 1202 l 418 1231 q 465 1228 435 1228 q 522 1231 498 1228 l 531 1225 l 577 1225 l 578 1225 q 591 1231 585 1225 q 612 1225 598 1226 q 602 1116 600 1178 l 595 1099 l 595 1053 l 595 1035 l 594 1033 q 593 1025 593 1031 q 594 1017 593 1021 q 589 954 587 987 l 582 920 l 587 902 q 581 822 578 871 q 576 784 576 805 q 577 764 576 777 l 571 747 l 570 745 q 572 735 568 739 l 567 689 q 564 666 564 679 q 569 631 564 648 q 564 604 564 615 q 566 591 564 600 q 561 555 561 577 q 562 533 561 541 l 559 493 l 552 458 q 559 430 552 442 q 517 333 536 388 q 500 286 513 324 q 478 239 495 270 l 475 216 l 434 118 l 431 95 q 425 71 431 84 q 383 9 414 40 l 385 -3 l 206 -3 l 180 20 q 186 41 180 23 q 239 153 203 86 l 237 164 q 277 256 260 206 l 288 286 l 302 328 l 321 378 l 345 441 q 343 469 343 450 q 354 562 343 512 l 352 574 l 345 585 l 350 631 l 353 654 q 357 684 357 668 q 353 718 357 701 l 359 735 l 358 764 l 362 793 l 366 816 q 364 823 364 820 q 368 839 364 829 q 372 891 372 865 q 369 937 372 916 l 379 966 l 376 989 q 382 1059 382 1020 l 381 1081 l 386 1173 l 392 1191 l 391 1202 m 865 1208 l 888 1225 q 947 1219 919 1219 q 1021 1225 976 1219 l 1038 1225 l 1056 1225 l 1071 1219 q 1065 1202 1071 1218 q 1040 1150 1059 1182 q 968 1046 1004 1112 q 952 1035 962 1044 l 940 1017 l 926 994 l 880 931 l 865 908 l 854 891 l 786 799 l 783 776 q 760 758 770 770 l 703 684 l 685 648 q 634 620 664 631 q 648 707 632 659 l 646 718 l 647 720 q 648 727 648 722 q 648 735 648 732 l 652 781 l 650 822 l 656 839 l 648 850 l 650 868 l 652 891 l 661 931 q 765 1076 716 985 l 803 1116 l 817 1139 l 837 1162 l 865 1208 z "},"Z":{"ha":767,"x_min":-43,"x_max":1019,"o":"m 432 1231 l 501 1231 l 519 1231 l 617 1231 l 641 1231 l 818 1225 l 855 1231 l 890 1231 l 989 1231 l 1019 1219 l 970 1086 l 962 1063 l 951 1051 l 943 1028 q 845 918 895 987 q 791 848 822 892 l 751 802 l 739 785 q 673 698 709 753 l 659 692 l 652 675 l 637 663 l 628 640 l 604 623 q 503 489 570 566 l 437 402 l 427 391 l 413 368 l 385 338 l 361 304 l 332 275 l 322 245 q 385 239 347 239 q 462 245 423 239 q 522 234 488 234 l 541 240 l 564 240 l 581 240 l 604 240 l 628 240 l 647 245 l 652 228 q 640 200 644 211 q 623 130 627 162 l 604 95 q 602 86 602 90 q 604 77 602 84 l 591 60 l 591 43 l 580 14 l 553 2 q 488 -5 525 -5 q 419 2 452 -5 l 355 2 l 317 1 l 274 2 l 260 -3 q 212 -9 238 -2 q 205 2 214 -3 l 168 -3 q 104 3 141 3 q 77 2 83 3 l 60 2 l 42 2 l 1 2 l -16 2 l -43 8 l -35 29 l -26 54 l -11 95 l -1 106 l 2 130 l 23 188 l 47 222 q 150 344 106 269 q 223 437 191 385 l 242 454 l 254 471 q 300 535 275 495 q 363 599 325 564 l 372 623 q 416 680 398 648 l 431 686 l 442 703 l 467 739 q 528 825 502 774 q 656 987 579 880 q 592 994 632 994 q 566 994 572 994 l 519 994 l 502 994 l 484 994 l 405 999 l 332 1005 l 401 1196 l 432 1231 z "},"[":{"ha":191,"x_min":0,"x_max":0,"o":""},"\\":{"ha":679,"x_min":5,"x_max":1077,"o":"m 734 1222 l 1077 1222 l 694 171 l 734 1222 m 372 1222 l 396 1222 l 347 -1 l 5 -1 l 13 235 l 372 1222 z "},"]":{"ha":212,"x_min":0,"x_max":0,"o":""},"^":{"ha":224,"x_min":0,"x_max":0,"o":""},"_":{"ha":332,"x_min":0,"x_max":0,"o":""},"`":{"ha":242,"x_min":0,"x_max":0,"o":""},"a":{"ha":834,"x_min":-42,"x_max":852,"o":"m 640 1235 q 688 1258 663 1232 q 769 1232 719 1232 q 833 1240 795 1232 q 852 1211 836 1225 q 825 1089 833 1164 l 814 1060 l 812 1037 l 810 1035 q 810 1028 810 1033 q 811 1019 810 1022 l 800 973 l 798 949 l 787 921 q 794 909 792 919 l 793 907 q 792 901 792 903 q 794 892 792 897 q 789 879 792 889 q 776 810 778 850 q 762 739 762 777 q 765 700 762 722 q 743 595 745 650 l 734 554 q 722 456 726 511 q 705 362 710 415 l 699 345 l 699 344 q 701 333 697 338 l 696 287 l 687 263 l 696 240 l 668 147 l 670 136 l 659 43 l 644 2 l 542 7 l 524 7 q 475 2 503 9 l 460 7 l 431 7 q 431 27 431 14 q 458 194 431 93 q 401 201 436 201 q 367 199 382 201 q 359 211 368 205 l 369 252 q 448 391 422 311 l 501 409 q 512 502 503 448 l 511 513 l 511 515 q 509 525 513 522 q 516 542 511 528 q 530 601 526 569 q 546 659 533 625 q 545 673 545 663 q 552 723 545 694 l 554 746 l 559 775 q 579 863 559 808 l 578 874 l 577 903 l 586 944 l 590 973 q 595 1019 589 989 q 599 1026 597 1021 q 601 1038 601 1032 q 597 1055 601 1046 l 606 1095 l 606 1130 l 619 1165 l 621 1200 l 640 1235 m 434 845 l 470 833 q 448 741 452 786 l 443 728 q 432 665 432 699 l 423 642 l 425 630 l 416 606 l 414 583 l 383 467 l 382 465 q 381 458 381 461 q 382 450 381 455 l 376 432 l 373 409 q 325 321 362 368 l 308 275 l 295 258 l 289 240 l 264 188 l 254 176 l 245 153 q 196 48 219 115 l 186 37 l 172 14 q 72 -4 127 15 l -1 2 l -19 2 l -37 2 l -42 19 q 7 106 -28 60 q 83 235 29 157 l 125 316 l 143 351 l 170 391 l 216 473 l 227 502 l 248 525 q 300 624 261 564 l 368 746 l 397 793 l 406 816 l 434 845 z "},"b":{"ha":774,"x_min":-40,"x_max":949,"o":"m 741 1246 q 779 1258 758 1246 q 949 1067 949 1219 q 918 916 949 1002 q 812 705 884 825 q 770 669 785 699 q 671 623 729 661 l 734 569 l 743 564 q 746 519 746 544 q 719 372 746 450 q 659 252 697 315 q 281 -14 545 14 q 309 81 288 26 l 332 145 l 332 163 l 334 180 q 488 320 452 220 q 500 363 496 344 q 523 410 514 387 q 532 456 532 434 q 476 540 532 509 q 500 597 490 570 q 523 669 515 640 l 538 711 q 682 837 645 736 q 692 876 687 851 q 717 924 710 904 q 726 972 726 951 q 676 1058 725 1024 q 683 1074 679 1063 q 690 1111 690 1093 q 715 1165 707 1143 q 733 1246 728 1201 q 741 1246 735 1246 m 393 1217 q 498 1246 439 1240 q 556 1229 528 1243 l 604 1229 q 608 1211 603 1218 q 583 1149 597 1188 q 559 1076 568 1109 l 545 1052 l 538 1034 l 526 1017 l 523 993 l 510 958 l 502 935 l 499 911 l 458 799 l 446 781 q 439 746 439 764 q 425 715 434 739 q 414 675 416 693 l 403 663 l 390 628 q 368 551 376 593 l 343 498 l 325 463 q 313 416 322 441 l 307 381 q 262 283 283 340 q 242 222 251 251 l 244 210 l 229 186 l 212 140 l 205 104 l 195 57 l 167 16 q 54 -8 106 -8 q -35 10 7 -8 l -40 28 l 106 428 l 155 546 l 170 604 q 202 675 186 632 l 240 781 l 257 829 l 279 887 l 279 888 q 277 899 281 895 l 288 911 l 345 1069 q 356 1097 349 1076 q 387 1199 372 1141 l 393 1217 z "},"c":{"ha":786,"x_min":34,"x_max":945,"o":"m 779 1220 q 797 1238 790 1225 q 945 1042 945 1202 q 942 1000 945 1029 q 927 924 941 962 q 900 867 918 899 q 839 843 873 865 q 739 808 796 836 l 726 802 l 705 808 q 722 876 707 836 q 737 913 733 905 l 749 947 q 703 1011 740 986 l 779 1220 m 646 1220 q 661 1232 652 1221 l 700 1226 q 667 1151 691 1198 q 643 1069 660 1118 l 637 1052 l 628 1029 q 535 965 574 1016 q 522 931 529 954 q 495 838 505 887 l 482 820 l 474 797 l 473 779 q 459 752 463 765 q 452 722 454 739 q 426 667 437 700 q 419 646 420 652 l 376 530 l 360 484 l 348 466 l 345 443 l 334 426 q 321 384 331 413 q 300 333 314 363 l 275 234 q 297 168 297 210 q 290 118 297 144 q 267 69 275 92 q 252 14 261 54 l 243 2 l 186 -9 q 37 153 83 35 q 68 304 34 214 l 92 368 q 115 449 100 406 l 125 460 l 138 498 l 155 542 l 203 675 q 212 705 205 689 q 227 739 219 724 l 229 762 l 245 791 l 298 936 l 317 971 l 338 1011 q 408 1093 371 1043 l 418 1104 l 457 1133 l 469 1151 q 551 1185 505 1162 l 572 1192 l 589 1192 l 626 1215 l 646 1220 m 591 449 l 683 414 l 718 397 l 730 385 q 715 326 725 353 q 657 217 695 273 q 357 7 531 7 l 326 8 q 368 106 342 54 l 376 130 q 388 176 377 144 l 406 193 l 404 205 q 513 281 465 222 q 523 308 513 282 q 553 408 536 342 l 591 449 z "},"d":{"ha":762,"x_min":-39,"x_max":909,"o":"m 418 1238 l 425 1226 q 491 1234 459 1234 q 618 1197 561 1234 q 557 1063 584 1139 q 549 1038 555 1059 l 541 1016 l 532 975 q 521 954 524 962 q 515 928 519 949 q 481 856 494 889 q 458 771 469 822 l 444 747 l 433 718 l 425 695 q 406 652 411 668 q 385 572 390 608 q 374 551 377 559 q 368 526 372 547 l 349 503 l 344 473 l 336 438 l 326 409 q 296 340 312 383 q 271 257 280 297 l 264 239 l 241 176 l 233 152 q 214 109 222 132 q 199 59 208 94 l 192 41 l 180 24 q 37 -1 109 -1 q -37 6 3 -1 l -39 30 q -8 102 -24 59 q 18 187 8 147 l 24 205 q 52 261 42 233 q 56 272 54 265 q 60 286 58 278 l 68 310 q 77 338 82 351 q 110 409 90 372 l 121 444 l 138 485 l 168 566 l 180 602 q 186 618 185 616 q 200 659 199 658 l 227 730 l 382 1156 q 385 1197 387 1176 l 418 1238 m 680 1115 q 703 1202 695 1156 l 739 1238 q 909 1013 909 1200 q 851 743 909 905 q 793 602 825 669 q 754 485 775 543 q 275 -5 585 17 q 296 76 280 34 q 317 129 300 87 l 321 152 l 321 170 l 355 216 q 456 269 409 220 l 457 304 q 509 412 488 351 l 524 456 l 532 479 l 536 503 l 549 526 q 562 590 562 559 l 581 613 l 591 654 q 621 721 607 683 q 630 747 629 743 l 703 946 l 712 987 q 646 1016 695 1015 q 651 1027 649 1021 q 659 1068 659 1050 q 680 1115 675 1101 z "},"e":{"ha":775,"x_min":-41,"x_max":1019,"o":"m 515 1244 l 532 1244 l 578 1244 l 594 1238 l 612 1238 q 629 1239 615 1239 q 680 1233 652 1239 l 694 1238 l 732 1233 l 750 1233 q 789 1236 764 1236 q 831 1233 813 1236 l 855 1233 l 886 1238 q 950 1232 911 1232 q 983 1233 975 1232 l 1019 1233 q 1017 1219 1017 1226 q 1019 1204 1017 1211 q 998 1168 1004 1186 q 991 1128 991 1151 l 970 1087 l 968 1063 l 940 1034 q 871 1029 905 1029 q 788 1034 839 1029 q 757 1033 766 1033 l 718 1034 q 634 1028 680 1027 q 580 1040 612 1040 l 557 1040 q 519 956 539 1010 l 513 939 l 508 923 l 502 906 l 496 888 q 465 819 486 863 l 456 795 l 437 777 l 429 754 l 454 743 q 562 755 503 755 l 599 754 l 616 754 l 634 754 l 675 754 l 686 736 l 644 620 l 627 573 l 616 562 l 585 538 q 564 540 574 540 q 512 532 543 540 l 497 538 q 469 536 474 536 l 439 538 l 421 538 l 404 538 l 386 538 l 372 549 l 334 445 l 296 340 l 275 298 l 269 281 l 240 235 l 359 240 l 376 240 l 392 235 l 416 235 l 479 235 l 497 235 l 573 235 l 604 240 q 648 217 631 236 l 636 199 l 593 83 l 587 65 l 575 47 l 565 18 l 552 1 q 536 -11 546 -1 q 471 -4 513 -4 q 445 -5 452 -4 l 427 -5 l 410 -5 l 369 -5 l 353 1 l 161 1 l 102 1 l 43 12 l 20 12 l -9 1 l -41 7 q -13 100 -34 45 l 276 894 q 320 999 289 930 l 350 1081 q 363 1115 356 1093 q 391 1209 379 1158 q 439 1244 409 1219 l 515 1244 z "},"f":{"ha":763,"x_min":-45,"x_max":1007,"o":"m 434 1244 l 550 1244 l 566 1238 l 629 1238 q 673 1233 644 1238 l 691 1233 l 772 1233 l 815 1238 q 844 1236 827 1236 q 884 1238 862 1236 l 894 1233 l 911 1233 l 941 1233 l 977 1238 l 1007 1227 q 991 1167 1003 1199 q 913 1030 968 1101 q 890 1029 908 1029 q 822 1036 860 1029 l 808 1030 l 799 1036 l 779 1030 l 756 1030 l 739 1030 l 710 1030 q 648 1036 684 1028 l 617 1030 l 596 1036 q 541 1013 572 1031 l 497 908 l 491 890 l 479 844 l 463 815 l 463 798 l 447 769 q 560 753 495 753 q 634 758 595 753 l 659 745 q 644 695 654 723 q 621 641 634 669 l 622 629 l 616 612 l 607 589 l 569 549 l 465 549 l 424 549 l 401 549 l 378 549 l 362 554 l 337 484 l 331 467 l 295 368 l 286 345 l 278 322 l 270 299 l 261 276 l 238 212 l 200 108 l 191 84 l 164 9 l 131 -3 q 58 9 100 9 q -6 3 28 9 l -26 -3 l -45 9 q -34 47 -41 24 q 7 136 -23 77 l 12 165 l 24 183 l 90 363 l 100 392 l 400 1215 l 434 1244 z "},"g":{"ha":806,"x_min":66,"x_max":955,"o":"m 695 1232 l 686 1192 l 669 1145 l 669 1143 q 671 1133 667 1139 l 665 1116 l 659 1099 q 574 1029 634 1051 q 532 977 556 1002 q 511 901 529 945 l 473 797 l 465 774 q 449 699 455 745 q 417 629 433 673 l 407 600 l 365 484 l 358 467 l 350 444 l 345 414 l 335 386 l 322 351 l 312 322 l 304 287 l 292 252 q 336 200 318 233 q 317 155 328 184 q 294 50 298 104 l 287 32 q 249 -9 267 14 q 66 201 66 30 q 105 388 66 281 q 165 525 127 448 q 182 587 172 557 q 214 658 192 613 q 206 669 215 664 l 222 681 q 233 724 224 697 q 256 774 241 746 q 267 821 256 791 q 270 836 267 826 q 279 855 273 845 l 290 884 q 292 903 292 890 q 291 919 292 913 q 317 958 310 939 q 322 988 321 969 l 345 1017 l 355 1046 q 621 1238 464 1163 l 695 1232 m 807 1232 q 825 1238 814 1232 q 955 1069 955 1202 q 947 1000 955 1040 q 925 906 945 959 l 917 884 q 811 849 864 880 l 761 838 l 722 844 q 751 945 730 885 q 773 1000 762 974 q 734 1052 763 1027 q 751 1106 740 1078 q 779 1174 758 1129 l 795 1220 l 805 1232 l 807 1232 m 643 597 q 711 606 674 597 q 792 600 735 600 l 813 600 q 787 496 811 559 l 788 484 l 781 467 l 772 455 l 771 438 l 762 426 l 760 409 q 749 381 753 393 q 730 310 736 348 q 695 229 711 278 l 689 212 l 680 189 l 672 165 l 644 90 l 636 67 l 608 -9 q 578 -14 593 -14 q 523 43 532 -14 q 387 1 433 1 q 347 20 357 1 l 401 171 l 429 212 q 534 326 503 240 q 549 386 546 359 l 492 386 l 492 420 l 555 594 l 610 600 q 643 597 628 597 z "},"h":{"ha":819,"x_min":-26,"x_max":1077,"o":"m 402 1215 q 535 1244 462 1242 q 635 1233 572 1244 l 599 1117 l 572 1041 q 559 1011 563 1023 q 541 943 549 985 q 524 907 531 928 q 513 867 515 886 l 502 850 q 499 840 502 849 q 493 826 496 831 q 479 770 491 802 q 469 745 475 758 l 449 705 q 481 699 465 698 l 481 690 q 486 664 481 677 l 435 524 q 371 490 413 487 l 290 269 q 281 245 282 250 q 267 188 269 214 q 239 123 249 149 q 214 43 232 102 l 201 25 l 195 7 l 174 -4 q 116 5 147 5 q 77 2 101 5 q 61 3 71 3 q 42 2 52 3 q 22 -4 34 2 l -26 7 q 5 128 -20 58 q 54 240 23 180 l 73 309 l 85 327 q 97 374 90 355 q 123 431 105 396 q 149 522 132 475 l 165 565 l 402 1215 m 811 1175 q 857 1233 825 1197 l 1077 1233 q 1033 1132 1056 1194 q 994 1006 1011 1070 l 977 977 l 967 931 l 954 913 l 942 884 q 918 798 930 851 l 897 757 l 895 733 l 855 640 l 857 629 l 842 606 l 844 594 l 838 576 l 819 542 l 806 507 l 800 472 l 781 437 q 753 345 765 395 l 631 7 l 404 7 q 427 87 410 41 q 438 118 435 112 l 532 391 q 553 441 542 411 q 572 501 564 471 q 532 519 545 500 q 548 553 542 537 q 559 594 551 564 l 589 675 q 652 705 609 699 q 665 734 661 722 q 682 821 679 774 q 694 842 688 828 q 699 867 698 853 l 739 960 l 745 977 l 744 989 l 765 1047 q 793 1108 781 1076 q 811 1175 805 1143 z "},"i":{"ha":372,"x_min":-24,"x_max":614,"o":"m 445 1222 q 486 1231 462 1222 l 495 1225 q 546 1231 522 1231 q 614 1219 581 1231 l 593 1127 q 570 1081 581 1110 l 572 1069 l 566 1052 l 559 1035 l 549 1006 l 513 908 l 507 890 l 486 833 l 475 804 l 446 723 l 408 619 l 399 596 l 385 556 l 378 538 l 372 522 l 366 504 l 338 429 l 332 412 l 326 394 l 300 325 l 294 308 l 258 210 l 250 186 l 208 71 l 202 54 l 185 8 q 64 -9 140 8 q -3 3 37 3 q -24 2 -20 3 l -18 37 l 102 366 l 102 382 l 119 412 l 125 446 l 142 475 l 149 510 q 155 529 150 515 q 182 585 166 557 l 180 596 l 243 769 l 252 792 l 288 890 q 313 970 300 935 q 353 1069 324 1002 l 357 1098 l 370 1116 l 376 1150 l 397 1208 l 426 1225 q 445 1222 436 1222 z "},"j":{"ha":765,"x_min":39,"x_max":994,"o":"m 784 1196 q 848 1231 810 1218 q 918 1220 877 1220 q 979 1225 942 1220 l 994 1219 q 956 1091 983 1168 q 918 996 934 1033 l 911 978 q 903 953 911 972 q 888 915 901 947 l 880 892 l 874 875 l 863 846 q 846 780 861 821 l 836 754 l 830 737 l 823 720 l 809 680 l 802 662 l 794 640 l 788 622 l 782 605 l 775 587 l 767 565 l 740 490 l 734 473 l 735 461 l 715 421 l 709 404 l 700 380 l 680 323 l 656 260 l 650 243 l 644 226 l 637 208 l 609 163 q 317 7 486 20 q 337 80 322 39 q 349 111 347 107 q 351 120 351 116 q 349 128 351 123 l 366 157 l 361 174 q 439 249 391 216 l 434 266 q 486 369 466 313 q 502 421 496 395 q 517 458 509 437 q 531 501 527 486 q 551 544 543 521 q 562 587 560 570 q 572 607 565 592 q 577 628 574 614 l 593 656 l 600 691 l 616 720 l 621 749 q 644 794 634 766 l 665 869 q 681 907 673 886 q 694 949 690 931 l 715 989 l 722 1024 l 751 1105 l 773 1150 q 784 1196 774 1168 m 347 484 l 326 427 l 303 363 l 302 347 l 289 323 l 288 306 l 274 283 l 268 266 l 264 243 l 262 220 l 294 197 l 269 128 q 259 87 265 104 q 214 7 243 46 l 215 -4 q 39 176 39 40 q 60 283 39 224 q 140 438 86 353 q 295 484 207 444 l 347 484 z "},"k":{"ha":785,"x_min":-21,"x_max":1029,"o":"m 443 1217 l 558 1217 l 575 1217 l 598 1217 l 616 1217 q 611 1208 612 1213 q 610 1198 610 1204 q 618 1177 610 1187 q 574 1093 591 1139 q 563 1056 568 1074 q 541 1010 552 1040 l 534 992 l 528 975 l 522 958 l 509 941 q 495 878 507 912 q 479 842 489 861 q 469 811 477 834 q 454 773 463 794 l 454 756 q 431 709 439 733 q 418 658 425 691 l 410 635 q 396 602 399 608 l 382 560 l 340 445 l 334 427 l 326 404 l 304 347 l 304 330 q 277 271 290 308 q 269 249 270 255 l 255 226 l 241 174 l 220 116 l 214 99 l 208 81 l 199 58 l 193 41 l 173 1 q 105 -11 146 1 l 88 -11 q 44 -5 65 -5 q -10 -11 24 -5 q -21 22 -21 3 q -11 64 -21 41 l 22 157 l 115 410 l 117 433 l 130 450 l 136 485 q 152 516 146 499 q 159 549 159 535 l 207 664 l 213 681 l 214 682 q 212 692 216 688 l 222 704 l 237 745 q 262 835 245 788 q 279 877 264 840 l 398 1206 l 443 1217 m 804 1194 l 823 1217 q 869 1215 839 1215 q 927 1217 902 1215 l 967 1217 l 990 1217 l 1008 1217 l 1029 1211 l 934 1044 l 921 1027 l 907 1004 l 901 987 l 885 975 l 873 958 q 833 895 857 927 l 819 871 q 744 745 777 821 l 728 733 q 703 600 702 665 l 696 583 l 688 560 l 687 543 l 687 526 q 686 516 686 523 q 686 508 686 511 l 680 491 q 664 399 668 450 l 659 370 q 648 307 648 340 q 640 237 637 280 l 633 220 q 629 191 629 205 l 612 99 l 607 70 l 608 41 l 582 1 q 553 -3 570 -3 q 519 1 536 -3 l 474 -11 l 438 1 l 416 -11 l 382 -11 q 393 62 393 24 q 393 81 393 75 l 398 95 l 403 108 q 406 115 404 112 q 408 121 407 118 l 414 139 l 408 157 l 418 185 q 420 195 420 191 q 416 208 420 201 l 428 226 q 437 278 437 253 q 435 307 437 294 l 449 347 l 448 376 l 463 416 l 453 439 l 468 462 q 465 482 465 474 q 471 519 465 499 l 464 531 l 518 681 q 545 739 528 708 l 554 762 l 554 779 l 569 819 l 577 842 q 696 1027 654 919 q 763 1131 736 1066 l 791 1177 l 804 1194 z "},"l":{"ha":755,"x_min":-35,"x_max":635,"o":"m 499 1217 q 511 1223 505 1217 q 542 1224 525 1224 q 618 1217 580 1224 q 584 1076 612 1156 q 547 987 570 1038 l 544 964 q 531 938 536 950 q 523 907 528 929 l 511 890 q 503 871 509 887 q 487 809 492 838 l 481 792 l 475 774 l 456 740 l 442 700 l 439 660 q 407 591 423 635 q 397 562 399 570 l 391 545 l 385 528 l 368 481 l 359 458 l 353 441 l 347 407 l 326 367 l 313 332 l 299 292 l 286 258 l 271 217 q 340 199 299 199 q 394 205 366 199 q 439 197 411 197 q 473 200 450 197 q 537 191 502 191 q 616 200 572 191 l 635 189 q 605 86 627 146 q 583 28 598 66 l 576 10 q 518 -7 549 -1 q 435 0 487 0 q 388 -1 411 0 l 370 -1 l 302 -1 l 284 -1 l 256 -1 l 227 -1 l 210 -1 l 186 -1 l 158 -1 l 140 -1 l 66 -1 l 43 -1 l 22 5 l -1 5 l -22 10 l -35 22 l 70 309 q 80 336 75 319 l 86 353 q 105 407 97 380 q 125 452 113 422 q 141 505 135 479 l 161 545 l 388 1183 l 410 1211 l 452 1217 l 498 1217 l 499 1217 l 499 1217 z "},"m":{"ha":920,"x_min":-52,"x_max":1159,"o":"m 971 1216 l 1003 1238 q 1092 1225 1037 1225 q 1150 1229 1112 1225 l 1159 1223 q 1139 1156 1154 1197 l 1120 1107 l 1113 1090 l 1106 1072 l 1079 1002 l 1073 985 l 1074 973 q 1068 945 1067 958 q 1051 911 1056 926 q 1043 880 1048 905 q 1038 869 1039 873 q 1034 857 1037 868 q 1026 841 1029 849 l 1023 829 l 1008 806 l 1000 770 l 991 747 l 973 701 l 962 672 q 945 614 956 657 l 920 550 l 922 538 l 907 515 q 901 490 907 508 q 882 452 894 473 q 869 405 881 433 l 863 370 l 837 336 l 840 312 q 806 243 829 283 l 794 196 l 788 179 q 783 170 785 175 q 781 161 781 165 l 774 144 l 768 127 q 762 117 764 123 q 761 109 761 113 l 751 86 l 727 22 q 619 9 677 9 q 544 15 589 9 q 589 190 548 80 l 600 201 q 613 253 604 227 q 646 323 623 281 q 657 372 648 348 q 675 410 663 389 q 696 479 679 435 l 801 764 q 811 789 808 781 q 827 845 819 808 l 935 1123 q 964 1198 946 1157 l 971 1216 m 401 1213 l 431 1230 q 444 1230 433 1230 q 492 1222 468 1230 q 539 1227 509 1227 l 557 1226 l 597 1225 q 588 1140 588 1184 q 590 1103 588 1122 l 581 1080 l 588 1067 l 573 968 l 575 945 q 573 930 573 939 q 575 916 573 923 l 568 881 q 562 832 562 858 q 566 787 562 809 q 557 740 557 766 q 558 723 557 728 l 551 688 l 575 676 l 637 762 l 667 808 l 686 843 l 702 854 l 718 877 q 759 865 740 876 q 753 846 758 859 q 719 778 739 810 l 720 766 l 708 749 l 707 731 l 698 708 l 691 690 l 659 609 q 649 587 653 600 q 640 545 642 569 l 628 528 l 625 505 q 570 378 597 458 l 559 337 l 496 233 l 481 227 l 475 210 l 468 193 l 448 170 l 439 146 l 416 118 l 401 95 q 392 77 397 90 q 387 60 391 74 l 361 20 q 298 9 334 12 q 313 92 298 46 l 317 132 l 312 150 l 321 173 l 314 185 l 315 188 q 316 194 316 190 q 315 202 316 199 l 323 237 l 329 267 l 324 284 l 328 307 l 325 331 l 338 425 l 328 442 q 338 518 338 479 q 334 565 338 542 q 339 614 339 584 q 338 635 339 628 l 345 652 l 337 676 q 346 744 346 709 q 345 770 346 752 l 345 799 q 346 813 346 808 q 344 828 346 821 q 351 886 351 853 q 347 939 351 912 l 353 956 l 347 968 l 357 1009 l 355 1050 l 349 1080 l 401 1213 m 208 673 l 202 673 l 208 673 l 239 649 q 238 613 238 638 q 241 549 238 578 l 235 532 q 237 506 237 520 q 227 439 237 475 l 235 427 q 224 372 224 401 q 224 357 224 362 l 219 328 l 221 304 l 216 275 q 219 241 219 262 q 218 205 219 232 l 173 89 l 168 48 l 161 31 l 146 7 l 134 -9 q 75 -14 118 -9 l 11 -12 l -7 -18 l -23 -12 l -37 -17 l -52 -11 q -50 4 -50 -4 q -52 18 -50 12 q -37 54 -45 30 q -22 111 -28 78 q -5 150 -9 136 q 3 175 -4 152 l 28 239 l 41 256 l 58 302 l 73 355 l 79 384 l 111 465 q 118 489 111 465 q 159 575 136 536 l 174 616 l 180 645 l 202 673 l 208 673 z "},"n":{"ha":788,"x_min":-42,"x_max":981,"o":"m 190 14 l 68 -3 q 42 -5 54 -5 q -42 26 -10 -5 l -17 96 l -9 113 l 26 211 l 35 234 l 41 251 l 47 268 q 58 315 55 289 q 75 349 70 332 q 85 389 83 370 q 104 430 98 411 q 115 470 110 444 q 122 486 117 473 q 135 539 131 509 q 144 557 140 547 q 148 574 147 566 l 162 597 q 177 655 164 619 q 186 677 182 672 q 195 707 189 691 q 232 787 205 738 l 239 804 l 259 798 q 271 752 258 776 q 266 695 266 722 q 283 596 266 644 l 280 573 l 288 533 l 292 464 l 294 452 l 304 435 l 296 412 l 309 383 l 303 354 l 307 331 q 304 318 304 325 q 307 302 304 310 q 253 193 273 251 q 223 72 233 140 l 212 60 l 190 14 m 568 24 q 552 13 563 23 l 532 12 q 460 42 492 12 q 463 81 463 66 q 450 175 463 124 l 453 198 l 446 210 q 447 231 447 223 q 437 296 447 261 l 438 313 l 433 330 q 434 350 434 344 q 422 411 434 380 l 429 429 l 425 452 l 415 469 q 417 490 417 479 q 402 544 417 518 q 404 564 404 553 q 403 578 404 568 l 404 580 q 401 590 406 586 l 402 604 q 387 677 402 641 l 393 694 l 387 723 l 380 751 l 374 781 q 375 802 375 787 q 359 867 375 834 l 366 884 q 353 942 358 904 l 345 954 l 343 965 q 345 988 345 977 q 332 1046 345 1018 l 342 1103 q 356 1134 348 1114 q 366 1167 363 1156 l 380 1207 q 431 1215 407 1215 q 484 1207 453 1215 l 529 1218 l 552 1218 l 567 1213 l 566 1200 q 582 1097 566 1158 l 581 1096 q 584 1086 579 1090 q 582 1075 582 1081 l 583 1068 q 582 1056 582 1065 q 585 1010 582 1047 l 590 993 q 589 984 589 990 q 589 976 589 979 l 590 947 q 602 884 589 916 l 595 866 l 601 849 q 605 814 600 832 l 604 780 l 604 751 l 609 716 l 614 682 l 616 659 l 621 624 l 620 589 l 625 555 q 640 456 625 512 q 639 437 639 450 q 650 387 639 411 q 647 366 647 379 q 650 341 647 353 l 661 307 q 657 267 656 288 l 604 122 l 605 111 l 593 94 l 568 24 m 760 549 l 721 566 l 741 618 l 736 669 l 734 728 l 727 739 l 728 756 l 720 768 q 721 780 721 771 q 718 825 721 789 l 713 843 q 708 860 713 852 l 711 883 l 716 912 l 705 929 l 707 952 l 696 970 q 705 1010 704 990 l 723 1056 q 731 1083 725 1064 q 764 1154 745 1120 q 773 1181 770 1175 l 785 1212 l 822 1217 q 859 1216 837 1216 q 956 1223 905 1216 l 974 1223 q 981 1211 972 1217 q 958 1120 976 1169 q 923 1038 945 1082 l 923 1021 l 886 923 q 878 897 882 907 q 865 865 873 882 q 854 819 854 834 l 848 802 l 829 750 l 821 727 l 799 652 l 777 577 l 760 549 z "},"o":{"ha":781,"x_min":49,"x_max":923,"o":"m 397 1103 q 625 1224 492 1182 q 642 1194 642 1221 q 623 1113 642 1165 q 593 1040 610 1079 q 528 987 570 1006 l 514 964 l 495 947 l 454 832 q 452 823 452 827 q 453 815 452 821 l 439 792 l 433 774 q 422 739 431 764 q 403 694 413 713 l 382 618 l 347 521 l 336 492 l 332 463 l 311 423 q 298 369 310 403 l 290 348 q 261 256 277 317 q 302 210 265 225 l 301 175 q 290 149 292 154 l 280 117 q 260 73 268 94 q 244 19 256 60 l 233 2 q 205 1 220 1 q 63 106 93 1 l 49 100 q 57 216 58 144 l 63 250 q 73 308 75 279 l 96 388 l 103 406 q 124 498 104 441 q 130 511 126 501 q 136 544 136 526 l 147 562 q 171 640 157 600 q 210 734 185 677 l 260 872 l 273 890 l 286 907 l 300 947 q 353 1046 328 992 l 365 1063 l 397 1103 m 711 1113 q 730 1178 722 1142 l 760 1213 q 913 1097 857 1192 q 912 1084 912 1088 q 923 1046 912 1065 l 902 954 l 903 941 l 902 924 q 896 909 901 924 q 878 826 882 873 l 876 803 l 867 780 q 856 755 860 766 q 844 700 848 732 l 835 677 l 827 654 l 824 631 l 810 608 q 793 554 804 583 q 743 440 774 503 l 737 423 l 729 400 l 722 382 l 710 348 l 704 331 q 648 227 669 284 l 625 193 l 591 134 q 344 -9 487 31 q 341 22 341 11 q 364 136 341 73 q 388 193 372 155 l 397 216 q 477 279 438 237 l 494 321 q 536 457 514 376 l 553 486 l 547 503 l 570 532 l 712 924 q 677 1017 714 979 q 686 1057 684 1034 q 711 1113 702 1086 z "},"p":{"ha":744,"x_min":-46,"x_max":917,"o":"m 709 1206 q 711 1215 711 1212 l 743 1238 q 917 1055 917 1208 q 884 899 917 989 l 867 858 q 856 821 863 842 q 472 543 756 549 q 499 633 481 583 l 513 671 l 535 730 q 650 823 611 753 q 683 928 667 863 l 706 992 q 648 1039 697 1036 q 653 1057 648 1040 q 680 1115 663 1084 l 705 1197 q 709 1206 707 1199 m 507 1232 l 530 1232 l 548 1232 l 571 1232 l 585 1220 q 564 1137 581 1181 q 521 1045 551 1097 q 484 911 514 991 l 473 899 l 473 882 l 437 782 l 427 753 l 418 730 l 380 625 l 371 601 l 365 583 l 366 572 l 351 531 l 338 496 l 330 455 l 292 350 l 283 326 l 240 210 l 234 192 l 217 145 l 200 99 l 183 52 l 162 11 q 20 -3 102 -3 q -46 -1 -12 -3 q 3 155 -33 55 l 14 183 l 28 221 l 111 449 l 120 473 l 126 507 l 156 572 q 192 688 166 619 l 333 1074 q 345 1118 339 1103 q 402 1232 363 1167 l 507 1232 z "},"q":{"ha":840,"x_min":53,"x_max":989,"o":"m 752 1172 q 781 1238 759 1196 q 845 1214 812 1233 l 861 1208 l 879 1208 l 888 1202 l 922 1178 l 924 1166 l 947 1166 q 989 1082 956 1128 q 985 1022 984 1059 q 966 920 983 987 q 945 848 962 894 l 945 830 l 924 788 q 912 740 922 767 l 895 692 q 857 572 885 646 q 833 524 846 553 l 833 506 q 817 494 825 503 q 825 482 823 492 q 786 408 800 447 q 770 351 779 387 q 727 248 749 312 l 705 218 l 698 200 l 692 182 q 617 111 664 149 l 605 92 q 620 3 603 51 l 607 -33 q 539 -87 572 -52 q 441 -159 490 -107 l 417 -159 q 401 -90 401 -130 q 407 -39 401 -64 q 350 -16 387 -22 q 345 20 352 3 q 386 115 366 60 l 399 153 l 414 195 q 515 338 483 245 q 572 515 526 387 l 587 554 l 587 572 l 600 590 l 606 608 l 609 632 l 620 662 l 635 686 l 640 716 l 655 758 l 672 788 q 688 826 681 807 q 714 920 703 867 l 725 950 l 688 998 l 752 1172 m 372 1052 q 640 1225 483 1159 l 691 1219 q 650 1138 665 1177 q 628 1046 635 1097 l 616 1028 q 539 950 590 989 l 513 878 l 507 860 l 469 758 l 460 734 l 452 710 l 443 686 l 434 662 l 428 644 l 419 620 l 402 590 q 391 551 398 569 q 370 500 385 533 l 341 422 l 332 398 l 330 374 l 315 351 q 292 269 310 317 q 279 237 282 243 q 314 182 287 205 q 312 171 312 176 q 313 164 312 166 q 286 112 296 139 q 273 39 273 77 l 239 -22 l 164 -16 q 53 223 53 74 q 94 429 53 315 q 149 554 117 493 l 269 884 l 283 908 l 357 1028 l 372 1052 z "},"r":{"ha":789,"x_min":-45,"x_max":956,"o":"m 469 1230 q 547 1238 506 1230 q 599 1220 567 1234 q 589 1196 591 1203 q 571 1126 578 1170 l 560 1115 l 552 1091 l 545 1074 l 537 1050 l 528 1027 l 522 1009 l 522 991 l 505 962 l 490 922 l 488 898 l 479 875 l 464 833 q 451 790 462 821 q 430 740 441 761 l 413 693 l 413 675 q 361 555 385 621 l 340 494 l 326 453 q 315 418 321 437 q 273 324 299 377 l 264 283 l 223 154 l 180 37 l 148 -4 l 42 -4 l 19 -4 l 1 -4 l -22 -4 l -45 -4 l 55 271 l 55 289 l 66 318 q 82 356 71 328 q 96 400 92 384 l 112 429 q 125 471 117 450 q 146 523 128 482 l 146 541 l 159 558 l 170 587 q 209 712 180 631 l 217 734 l 232 775 q 245 809 238 787 q 273 904 262 853 l 297 968 l 311 991 l 333 1068 q 343 1095 337 1076 q 374 1197 360 1139 l 380 1214 q 439 1232 408 1216 q 469 1230 452 1230 m 683 1162 q 779 1232 705 1224 q 956 1079 956 1217 q 932 962 956 1029 q 910 860 927 907 q 705 629 859 720 l 697 605 q 751 558 727 594 l 760 552 l 762 511 q 757 465 756 483 l 714 347 l 697 300 l 691 283 l 680 254 l 671 230 l 659 195 l 616 78 l 610 60 l 602 37 l 595 20 l 583 2 q 534 -1 563 -1 q 477 2 507 -1 l 452 -4 l 435 -4 l 425 2 l 406 -4 l 376 -4 q 401 86 383 38 q 416 123 405 98 l 423 142 l 507 371 q 515 392 514 387 q 528 447 524 414 l 534 465 q 471 500 520 500 l 473 535 q 478 549 477 546 q 485 564 484 559 q 509 652 498 601 l 515 669 q 613 728 549 712 q 694 876 671 814 q 709 954 709 918 q 654 1050 709 1019 q 676 1093 670 1075 q 685 1139 685 1115 q 683 1162 685 1151 z "},"s":{"ha":846,"x_min":62,"x_max":989,"o":"m 614 1232 q 632 1238 622 1232 q 697 1220 665 1237 q 688 1196 695 1217 q 668 1125 675 1162 q 639 1059 648 1092 l 628 1048 l 628 1030 q 598 983 611 1008 q 546 935 571 962 q 514 864 528 907 q 661 733 558 781 q 724 674 680 699 l 739 650 q 786 585 763 630 l 795 579 l 810 472 l 814 448 q 808 418 808 432 q 812 395 808 408 q 798 351 806 371 q 520 33 730 166 q 368 -9 449 -3 q 392 80 374 29 q 416 140 399 101 l 443 229 q 583 372 539 269 q 545 478 583 426 l 508 490 q 466 537 496 511 l 451 543 l 449 555 l 433 561 l 432 573 q 292 793 292 644 q 325 958 292 867 q 353 1024 334 983 q 408 1078 380 1046 q 467 1143 438 1107 q 507 1173 486 1152 q 612 1232 557 1187 l 614 1232 m 760 1179 q 766 1214 767 1198 l 778 1232 q 989 994 988 1214 q 979 946 987 969 q 952 894 969 920 q 846 882 911 893 l 829 882 l 827 882 q 808 876 819 882 l 785 876 l 759 869 l 741 869 l 728 882 q 745 947 732 913 q 715 994 740 975 l 705 1030 l 754 1166 q 760 1179 758 1173 m 252 389 l 300 389 q 289 311 289 348 q 341 193 289 234 q 315 98 334 153 q 263 -20 294 43 l 226 -9 l 208 -9 q 62 243 62 60 q 65 300 62 267 l 68 309 q 245 389 97 389 l 252 389 z "},"t":{"ha":800,"x_min":200,"x_max":1034,"o":"m 1008 1231 l 1034 1225 q 1009 1101 1033 1166 q 968 1012 994 1061 l 853 1012 l 836 1012 l 819 1012 l 809 1018 l 784 1012 l 768 1018 l 743 949 l 737 932 l 701 833 l 693 810 l 666 736 l 656 707 l 632 644 l 624 621 l 622 597 l 603 563 l 601 540 l 588 505 l 574 483 q 547 391 566 442 l 534 356 l 522 321 l 507 281 l 488 229 q 479 209 485 223 q 460 137 467 175 l 451 114 l 445 97 l 430 56 l 416 16 q 325 -1 373 -1 q 268 5 296 -1 q 200 -7 237 -7 l 202 62 q 230 115 220 87 q 239 149 237 134 l 275 246 l 277 249 q 273 258 278 254 q 295 307 290 292 q 322 408 309 343 q 339 442 332 422 q 349 483 347 464 l 357 505 q 376 548 371 532 q 391 597 382 565 l 496 886 l 517 926 l 538 1000 l 530 1012 q 463 1000 504 1012 q 412 1007 444 1007 q 391 1006 396 1007 l 373 1006 l 356 1006 l 340 1012 q 357 1091 340 1046 q 365 1110 362 1105 l 388 1173 l 393 1202 l 403 1214 q 487 1220 440 1220 q 519 1219 513 1220 l 537 1219 l 600 1219 l 704 1219 l 721 1219 l 749 1218 q 833 1225 781 1218 l 850 1225 l 890 1225 l 908 1225 l 937 1225 l 983 1225 l 1008 1231 z "},"u":{"ha":775,"x_min":50,"x_max":1006,"o":"m 404 1231 l 475 1231 l 492 1231 l 592 1231 l 616 1231 q 593 1147 610 1192 q 570 1090 585 1122 l 569 1088 q 572 1078 567 1084 q 549 1031 558 1059 l 542 1014 q 531 979 541 1009 l 514 937 l 507 902 q 471 820 488 869 l 463 779 l 450 743 l 437 708 l 409 632 l 403 614 l 396 597 l 368 520 l 362 503 l 355 489 q 351 456 351 473 l 336 432 q 324 380 334 410 q 296 321 311 346 l 296 303 l 280 262 l 274 244 l 271 221 q 290 170 290 202 q 278 109 290 144 q 258 62 271 97 q 239 3 244 23 q 218 -8 227 1 q 50 180 75 18 q 56 214 56 195 q 54 239 56 226 l 62 259 q 92 356 76 297 l 98 374 q 102 382 100 376 q 104 391 104 389 l 166 562 l 178 579 l 184 597 q 203 667 191 634 q 220 708 210 688 q 259 833 231 754 l 267 855 l 370 1137 l 374 1151 l 381 1171 q 389 1190 382 1175 l 397 1213 l 404 1231 m 932 1231 l 956 1231 l 974 1231 l 997 1231 l 1006 1225 q 978 1109 1002 1177 q 956 1055 970 1086 l 947 1035 q 935 979 939 1010 l 922 961 l 924 949 l 918 931 l 905 913 l 896 873 l 888 849 l 849 743 l 841 720 l 834 703 l 825 679 l 787 573 l 781 555 l 774 538 l 743 438 l 734 414 l 728 397 l 715 362 l 705 332 l 696 292 q 654 209 677 260 q 622 168 636 194 q 347 -8 510 49 q 335 9 345 3 l 350 53 l 370 104 l 376 121 l 376 122 q 374 133 378 128 l 393 186 q 482 286 447 223 l 497 292 l 501 321 q 530 450 519 371 l 666 838 l 673 873 l 696 937 q 736 1031 716 978 l 743 1046 q 752 1090 749 1063 l 780 1166 q 827 1231 791 1194 l 932 1231 z "},"v":{"ha":781,"x_min":224,"x_max":1031,"o":"m 857 1231 l 961 1231 l 984 1231 l 1002 1231 l 1025 1231 q 1031 1219 1023 1225 q 939 1045 1006 1149 q 895 970 927 1010 l 886 946 l 871 923 l 839 865 l 827 848 l 819 825 l 795 778 l 776 755 l 757 720 l 741 691 q 694 610 728 658 l 646 511 l 614 488 q 612 513 612 504 q 631 598 612 551 l 624 610 l 637 708 l 637 726 q 652 830 650 768 q 654 844 654 838 q 651 859 654 852 l 648 882 l 679 935 l 688 946 l 709 987 l 724 1010 l 744 1051 l 763 1086 l 774 1103 q 821 1184 788 1133 l 836 1208 l 857 1231 m 503 1213 q 515 1219 509 1213 l 604 1208 q 591 1074 593 1160 l 589 1057 l 583 1039 l 577 1022 l 582 1004 q 578 994 580 1002 q 570 941 568 970 l 562 900 q 560 890 560 897 q 561 882 560 885 l 560 865 q 558 851 558 858 q 562 836 558 844 l 555 819 l 558 795 q 544 708 544 756 l 538 691 q 532 641 532 667 q 535 604 532 625 l 527 581 l 514 499 l 513 481 l 509 435 q 500 366 498 406 q 495 319 494 340 l 492 278 l 489 238 q 432 145 470 186 q 360 12 411 91 l 350 -1 q 290 -6 316 -6 q 228 -1 264 -6 q 229 9 229 3 q 224 35 229 23 q 231 52 225 37 q 252 168 252 111 q 248 214 252 189 q 254 227 252 221 q 262 284 264 257 q 269 319 269 304 l 281 383 l 277 406 q 282 435 282 418 l 296 488 l 297 557 q 298 566 298 560 q 298 574 298 572 l 311 610 l 305 627 l 318 662 q 329 772 318 706 q 336 833 336 802 q 336 853 336 846 q 351 911 345 878 l 343 923 l 349 970 q 365 1063 363 1007 l 378 1161 l 393 1202 q 474 1215 431 1215 l 501 1213 l 503 1213 z "},"w":{"ha":1049,"x_min":212,"x_max":1318,"o":"m 861 1226 q 877 1238 867 1227 q 928 1220 904 1236 l 918 1145 l 912 1127 l 909 1069 q 899 1011 911 1046 q 892 947 901 984 l 890 924 q 896 890 888 907 l 889 872 l 888 870 q 890 861 886 864 q 878 779 880 828 q 876 766 876 773 q 880 750 876 759 q 871 681 871 724 l 866 634 l 865 626 q 871 600 865 614 l 865 553 q 864 541 864 545 q 867 524 864 532 l 858 484 l 856 385 q 793 257 838 333 l 772 216 l 766 199 l 754 182 l 747 164 l 733 141 l 726 123 l 715 106 l 700 83 l 686 60 l 673 25 l 653 2 l 584 2 l 597 135 l 604 187 l 604 199 l 614 292 q 627 391 627 334 l 631 420 l 629 443 q 633 472 633 458 l 640 507 l 639 536 l 646 570 l 649 611 q 652 631 652 620 q 650 646 652 641 q 667 740 667 690 q 665 768 667 749 q 678 866 680 812 q 682 907 682 885 l 687 954 q 764 1069 711 1006 l 774 1099 l 792 1116 l 821 1162 l 835 1185 l 853 1203 l 861 1226 m 1120 1238 l 1300 1238 l 1318 1238 q 1306 1199 1314 1222 q 1221 1035 1279 1126 l 1215 1017 l 1186 970 q 1128 861 1169 926 q 1077 768 1116 819 l 1079 756 q 1038 692 1062 724 l 1027 663 l 1019 640 l 980 629 l 970 663 q 978 683 972 667 q 991 755 991 719 q 985 802 991 777 q 993 854 993 826 l 994 872 l 998 901 l 995 924 l 1003 947 l 992 965 q 987 983 994 977 q 1038 1075 1004 1034 q 1078 1151 1048 1103 q 1092 1183 1086 1164 q 1101 1215 1099 1204 l 1120 1238 m 409 1226 l 589 1226 l 606 1226 l 623 1226 q 625 1196 625 1217 q 601 1052 625 1135 l 606 1035 l 600 1017 q 598 1008 598 1015 q 599 1000 598 1002 l 593 983 l 596 959 q 580 884 585 928 l 574 866 l 570 843 q 566 805 566 826 q 567 785 566 792 l 559 745 l 552 727 q 551 718 551 724 q 551 709 551 712 l 551 692 l 543 669 l 537 576 q 526 512 528 546 q 520 448 519 484 l 503 402 q 448 298 475 362 l 438 286 q 414 239 425 269 l 401 216 l 387 193 l 347 118 l 332 89 l 315 60 l 298 31 l 288 2 q 273 3 285 3 q 222 -4 248 3 q 214 54 212 16 q 219 64 216 56 q 224 91 224 80 q 222 106 224 98 q 231 153 231 131 q 231 164 231 160 l 237 182 q 250 280 249 228 l 253 303 q 264 368 264 338 l 275 396 l 271 420 q 284 500 285 457 l 294 530 l 292 553 q 296 582 296 567 q 309 652 309 623 q 309 663 309 660 l 323 722 l 327 762 l 333 779 l 340 831 l 343 854 l 345 890 l 353 930 l 370 1040 l 376 1058 l 391 1192 l 409 1226 z "},"x":{"ha":847,"x_min":-35,"x_max":1095,"o":"m 1061 1228 l 1083 1239 q 1095 1210 1095 1227 q 1088 1180 1095 1199 q 947 1004 1026 1115 l 937 993 l 924 976 l 909 953 l 835 857 l 814 833 l 799 811 l 784 788 l 769 765 l 741 737 l 725 744 q 730 793 730 766 q 721 861 730 829 q 724 888 724 871 q 723 908 724 901 q 730 941 730 924 q 728 961 730 951 l 734 1019 l 730 1037 l 736 1055 q 829 1168 788 1099 q 885 1236 854 1194 l 1061 1228 m 558 1227 q 620 1236 585 1225 q 666 1193 648 1227 q 656 1127 656 1162 q 665 1063 656 1094 q 655 999 655 1034 q 660 952 655 981 q 667 940 657 943 q 653 870 653 907 q 655 841 653 857 l 646 806 q 645 777 645 788 q 648 724 645 762 q 642 665 642 696 l 640 648 l 641 636 l 640 634 q 639 625 639 629 q 640 618 639 621 l 639 589 l 639 559 q 634 522 634 543 q 640 477 634 498 l 633 460 l 638 431 q 634 399 634 414 q 645 348 634 372 l 635 325 q 637 296 637 307 q 635 254 637 284 l 642 225 q 635 189 635 207 q 645 149 635 169 q 635 84 635 118 q 640 37 635 60 l 639 20 l 623 -3 q 582 0 600 0 q 561 -1 566 0 l 522 1 l 498 2 l 458 4 l 442 5 l 413 6 q 406 74 406 38 q 409 123 406 100 l 405 142 l 412 159 q 406 171 413 164 q 414 228 414 198 q 408 276 414 254 l 414 305 l 416 382 l 413 417 l 412 441 l 415 464 l 416 493 l 416 523 l 422 652 l 416 663 l 419 687 l 425 728 q 425 749 425 735 q 422 792 425 770 l 429 839 l 426 874 l 431 916 l 431 956 q 432 987 432 975 q 429 1050 432 1012 l 430 1068 q 431 1082 431 1073 q 426 1115 431 1099 q 429 1142 429 1130 q 420 1186 429 1164 l 435 1221 q 506 1233 470 1233 q 558 1227 532 1233 m 319 498 l 340 491 q 332 374 332 438 l 319 315 q 328 268 328 293 q 318 214 328 242 q 247 107 300 163 q 178 11 221 56 q 146 9 162 9 q 94 14 119 9 l -8 7 l -35 26 l -16 72 q 97 208 39 125 l 108 219 l 128 241 l 148 276 l 166 293 l 179 310 l 197 338 l 215 355 q 273 441 237 396 q 298 475 280 458 l 319 498 z "},"y":{"ha":818,"x_min":180,"x_max":1071,"o":"m 391 1202 l 418 1231 q 465 1228 435 1228 q 522 1231 498 1228 l 531 1225 l 577 1225 l 578 1225 q 591 1231 585 1225 q 612 1225 598 1226 q 602 1116 600 1178 l 595 1099 l 595 1053 l 595 1035 l 594 1033 q 593 1025 593 1031 q 594 1017 593 1021 q 589 954 587 987 l 582 920 l 587 902 q 581 822 578 871 q 576 784 576 805 q 577 764 576 777 l 571 747 l 570 745 q 572 735 568 739 l 567 689 q 564 666 564 679 q 569 631 564 648 q 564 604 564 615 q 566 591 564 600 q 561 555 561 577 q 562 533 561 541 l 559 493 l 552 458 q 559 430 552 442 q 517 333 536 388 q 500 286 513 324 q 478 239 495 270 l 475 216 l 434 118 l 431 95 q 425 71 431 84 q 383 9 414 40 l 385 -3 l 206 -3 l 180 20 q 186 41 180 23 q 239 153 203 86 l 237 164 q 277 256 260 206 l 288 286 l 302 328 l 321 378 l 345 441 q 343 469 343 450 q 354 562 343 512 l 352 574 l 345 585 l 350 631 l 353 654 q 357 684 357 668 q 353 718 357 701 l 359 735 l 358 764 l 362 793 l 366 816 q 364 823 364 820 q 368 839 364 829 q 372 891 372 865 q 369 937 372 916 l 379 966 l 376 989 q 382 1059 382 1020 l 381 1081 l 386 1173 l 392 1191 l 391 1202 m 865 1208 l 888 1225 q 947 1219 919 1219 q 1021 1225 976 1219 l 1038 1225 l 1056 1225 l 1071 1219 q 1065 1202 1071 1218 q 1040 1150 1059 1182 q 968 1046 1004 1112 q 952 1035 962 1044 l 940 1017 l 926 994 l 880 931 l 865 908 l 854 891 l 786 799 l 783 776 q 760 758 770 770 l 703 684 l 685 648 q 634 620 664 631 q 648 707 632 659 l 646 718 l 647 720 q 648 727 648 722 q 648 735 648 732 l 652 781 l 650 822 l 656 839 l 648 850 l 650 868 l 652 891 l 661 931 q 765 1076 716 985 l 803 1116 l 817 1139 l 837 1162 l 865 1208 z "},"z":{"ha":767,"x_min":-43,"x_max":1019,"o":"m 432 1231 l 501 1231 l 519 1231 l 617 1231 l 641 1231 l 818 1225 l 855 1231 l 890 1231 l 989 1231 l 1019 1219 l 970 1086 l 962 1063 l 951 1051 l 943 1028 q 845 918 895 987 q 791 848 822 892 l 751 802 l 739 785 q 673 698 709 753 l 659 692 l 652 675 l 637 663 l 628 640 l 604 623 q 503 489 570 566 l 437 402 l 427 391 l 413 368 l 385 338 l 361 304 l 332 275 l 322 245 q 385 239 347 239 q 462 245 423 239 q 522 234 488 234 l 541 240 l 564 240 l 581 240 l 604 240 l 628 240 l 647 245 l 652 228 q 640 200 644 211 q 623 130 627 162 l 604 95 q 602 86 602 90 q 604 77 602 84 l 591 60 l 591 43 l 580 14 l 553 2 q 488 -5 525 -5 q 419 2 452 -5 l 355 2 l 317 1 l 274 2 l 260 -3 q 212 -9 238 -2 q 205 2 214 -3 l 168 -3 q 104 3 141 3 q 77 2 83 3 l 60 2 l 42 2 l 1 2 l -16 2 l -43 8 l -35 29 l -26 54 l -11 95 l -1 106 l 2 130 l 23 188 l 47 222 q 150 344 106 269 q 223 437 191 385 l 242 454 l 254 471 q 300 535 275 495 q 363 599 325 564 l 372 623 q 416 680 398 648 l 431 686 l 442 703 l 467 739 q 528 825 502 774 q 656 987 579 880 q 592 994 632 994 q 566 994 572 994 l 519 994 l 502 994 l 484 994 l 405 999 l 332 1005 l 401 1196 l 432 1231 z "},"{":{"ha":285,"x_min":0,"x_max":0,"o":""},"|":{"ha":136,"x_min":0,"x_max":0,"o":""},"}":{"ha":244,"x_min":0,"x_max":0,"o":""},"~":{"ha":431,"x_min":0,"x_max":0,"o":""},"":{"ha":413,"x_min":0,"x_max":0,"o":""},"":{"ha":413,"x_min":0,"x_max":0,"o":""},"":{"ha":494,"x_min":0,"x_max":0,"o":""},"":{"ha":439,"x_min":0,"x_max":0,"o":""},"":{"ha":415,"x_min":0,"x_max":0,"o":""},"":{"ha":472,"x_min":0,"x_max":0,"o":""},"":{"ha":448,"x_min":0,"x_max":0,"o":""},"":{"ha":250,"x_min":0,"x_max":0,"o":""},"":{"ha":250,"x_min":0,"x_max":0,"o":""},"":{"ha":250,"x_min":0,"x_max":0,"o":""},"":{"ha":250,"x_min":0,"x_max":0,"o":""},"":{"ha":250,"x_min":0,"x_max":0,"o":""},"":{"ha":250,"x_min":0,"x_max":0,"o":""},"":{"ha":346,"x_min":0,"x_max":0,"o":""},"":{"ha":330,"x_min":0,"x_max":0,"o":""},"":{"ha":330,"x_min":0,"x_max":0,"o":""},"":{"ha":330,"x_min":0,"x_max":0,"o":""},"":{"ha":330,"x_min":0,"x_max":0,"o":""},"":{"ha":159,"x_min":0,"x_max":0,"o":""},"":{"ha":159,"x_min":0,"x_max":0,"o":""},"":{"ha":159,"x_min":0,"x_max":0,"o":""},"":{"ha":159,"x_min":0,"x_max":0,"o":""},"":{"ha":260,"x_min":0,"x_max":0,"o":""},"":{"ha":248,"x_min":0,"x_max":0,"o":""},"":{"ha":248,"x_min":0,"x_max":0,"o":""},"":{"ha":248,"x_min":0,"x_max":0,"o":""},"":{"ha":248,"x_min":0,"x_max":0,"o":""},"":{"ha":248,"x_min":0,"x_max":0,"o":""},"":{"ha":232,"x_min":0,"x_max":0,"o":""},"":{"ha":232,"x_min":0,"x_max":0,"o":""},"":{"ha":232,"x_min":0,"x_max":0,"o":""},"":{"ha":232,"x_min":0,"x_max":0,"o":""},"":{"ha":306,"x_min":0,"x_max":0,"o":""},"":{"ha":193,"x_min":0,"x_max":0,"o":""},"":{"ha":431,"x_min":0,"x_max":0,"o":""},"":{"ha":431,"x_min":0,"x_max":0,"o":""},"":{"ha":285,"x_min":0,"x_max":0,"o":""},"":{"ha":262,"x_min":0,"x_max":0,"o":""},"":{"ha":305,"x_min":0,"x_max":0,"o":""},"":{"ha":338,"x_min":0,"x_max":0,"o":""},"":{"ha":507,"x_min":0,"x_max":0,"o":""},"":{"ha":484,"x_min":0,"x_max":0,"o":""},"":{"ha":462,"x_min":0,"x_max":0,"o":""},"":{"ha":313,"x_min":0,"x_max":0,"o":""},"":{"ha":252,"x_min":0,"x_max":0,"o":""},"":{"ha":555,"x_min":0,"x_max":0,"o":""},"":{"ha":472,"x_min":0,"x_max":0,"o":""},"":{"ha":431,"x_min":0,"x_max":0,"o":""},"":{"ha":431,"x_min":0,"x_max":0,"o":""},"":{"ha":285,"x_min":0,"x_max":0,"o":""},"":{"ha":273,"x_min":0,"x_max":0,"o":""},"":{"ha":273,"x_min":0,"x_max":0,"o":""},"":{"ha":507,"x_min":0,"x_max":0,"o":""},"":{"ha":248,"x_min":0,"x_max":0,"o":""},"":{"ha":385,"x_min":0,"x_max":0,"o":""},"":{"ha":210,"x_min":0,"x_max":0,"o":""},"":{"ha":946,"x_min":0,"x_max":0,"o":""},"":{"ha":391,"x_min":0,"x_max":0,"o":""},"":{"ha":366,"x_min":0,"x_max":0,"o":""},"":{"ha":366,"x_min":0,"x_max":0,"o":""},"":{"ha":537,"x_min":0,"x_max":0,"o":""},"":{"ha":338,"x_min":0,"x_max":0,"o":""},"":{"ha":413,"x_min":0,"x_max":0,"o":""},"":{"ha":413,"x_min":0,"x_max":0,"o":""},"":{"ha":472,"x_min":0,"x_max":0,"o":""},"":{"ha":647,"x_min":0,"x_max":0,"o":""},"":{"ha":513,"x_min":0,"x_max":0,"o":""},"":{"ha":464,"x_min":0,"x_max":0,"o":""},"":{"ha":606,"x_min":0,"x_max":0,"o":""},"":{"ha":232,"x_min":0,"x_max":0,"o":""},"":{"ha":203,"x_min":0,"x_max":0,"o":""},"":{"ha":161,"x_min":0,"x_max":0,"o":""},"":{"ha":163,"x_min":0,"x_max":0,"o":""},"":{"ha":431,"x_min":0,"x_max":0,"o":""},"":{"ha":267,"x_min":0,"x_max":0,"o":""},"":{"ha":357,"x_min":0,"x_max":0,"o":""},"":{"ha":285,"x_min":0,"x_max":0,"o":""},"":{"ha":218,"x_min":0,"x_max":0,"o":""},"":{"ha":218,"x_min":0,"x_max":0,"o":""},"":{"ha":228,"x_min":0,"x_max":0,"o":""},"":{"ha":140,"x_min":0,"x_max":0,"o":""},"":{"ha":159,"x_min":0,"x_max":0,"o":""},"":{"ha":273,"x_min":0,"x_max":0,"o":""},"":{"ha":494,"x_min":0,"x_max":0,"o":""},"":{"ha":413,"x_min":0,"x_max":0,"o":""},"":{"ha":439,"x_min":0,"x_max":0,"o":""},"":{"ha":413,"x_min":0,"x_max":0,"o":""},"":{"ha":439,"x_min":0,"x_max":0,"o":""},"":{"ha":439,"x_min":0,"x_max":0,"o":""},"":{"ha":159,"x_min":0,"x_max":0,"o":""},"":{"ha":159,"x_min":0,"x_max":0,"o":""},"":{"ha":159,"x_min":0,"x_max":0,"o":""},"":{"ha":159,"x_min":0,"x_max":0,"o":""},"":{"ha":472,"x_min":0,"x_max":0,"o":""},"":{"ha":472,"x_min":0,"x_max":0,"o":""},"":{"ha":472,"x_min":0,"x_max":0,"o":""},"":{"ha":448,"x_min":0,"x_max":0,"o":""},"":{"ha":448,"x_min":0,"x_max":0,"o":""},"":{"ha":448,"x_min":0,"x_max":0,"o":""},"":{"ha":244,"x_min":0,"x_max":0,"o":""},"":{"ha":328,"x_min":0,"x_max":0,"o":""},"":{"ha":244,"x_min":0,"x_max":0,"o":""},"":{"ha":218,"x_min":0,"x_max":0,"o":""},"":{"ha":421,"x_min":0,"x_max":0,"o":""},"":{"ha":232,"x_min":0,"x_max":0,"o":""},"":{"ha":136,"x_min":0,"x_max":0,"o":""},"":{"ha":450,"x_min":0,"x_max":0,"o":""},"":{"ha":328,"x_min":0,"x_max":0,"o":""},"":{"ha":357,"x_min":0,"x_max":0,"o":""},"":{"ha":267,"x_min":0,"x_max":0,"o":""},"":{"ha":391,"x_min":0,"x_max":0,"o":""},"":{"ha":236,"x_min":0,"x_max":0,"o":""},"":{"ha":431,"x_min":0,"x_max":0,"o":""},"":{"ha":431,"x_min":0,"x_max":0,"o":""},"":{"ha":203,"x_min":0,"x_max":0,"o":""},"":{"ha":203,"x_min":0,"x_max":0,"o":""},"":{"ha":203,"x_min":0,"x_max":0,"o":""},"":{"ha":533,"x_min":0,"x_max":0,"o":""},"":{"ha":533,"x_min":0,"x_max":0,"o":""},"":{"ha":533,"x_min":0,"x_max":0,"o":""},"":{"ha":387,"x_min":0,"x_max":0,"o":""},"":{"ha":144,"x_min":0,"x_max":0,"o":""},"":{"ha":468,"x_min":0,"x_max":0,"o":""},"":{"ha":313,"x_min":0,"x_max":0,"o":""},"":{"ha":431,"x_min":0,"x_max":0,"o":""},"":{"ha":454,"x_min":0,"x_max":0,"o":""},"":{"ha":232,"x_min":0,"x_max":0,"o":""},"":{"ha":232,"x_min":0,"x_max":0,"o":""},"":{"ha":328,"x_min":0,"x_max":0,"o":""},"":{"ha":948,"x_min":0,"x_max":0,"o":""},"":{"ha":541,"x_min":0,"x_max":0,"o":""},"":{"ha":541,"x_min":0,"x_max":0,"o":""},"":{"ha":948,"x_min":0,"x_max":0,"o":""},"":{"ha":979,"x_min":0,"x_max":0,"o":""},"":{"ha":555,"x_min":0,"x_max":0,"o":""},"":{"ha":431,"x_min":0,"x_max":0,"o":""},"":{"ha":248,"x_min":0,"x_max":0,"o":""},"":{"ha":165,"x_min":0,"x_max":0,"o":""},"":{"ha":159,"x_min":0,"x_max":0,"o":""},"":{"ha":356,"x_min":0,"x_max":0,"o":""},"":{"ha":326,"x_min":0,"x_max":0,"o":""},"":{"ha":399,"x_min":0,"x_max":0,"o":""},"":{"ha":159,"x_min":0,"x_max":0,"o":""},"":{"ha":244,"x_min":0,"x_max":0,"o":""},"":{"ha":124,"x_min":0,"x_max":0,"o":""},"":{"ha":244,"x_min":0,"x_max":0,"o":""},"":{"ha":317,"x_min":0,"x_max":0,"o":""},"":{"ha":183,"x_min":0,"x_max":0,"o":""},"":{"ha":244,"x_min":0,"x_max":0,"o":""}}}
